<?xml version="1.0" encoding="UTF-8"?><svg id="Layer_1" xmlns="http://www.w3.org/2000/svg" viewBox="0 0 856.96 442.7"><defs><style>.cls-1{fill:#106153;}.cls-2{fill:#fbcc0a;fill-rule:evenodd;}</style></defs><path class="cls-1" d="M318.36,257.64c-7.52-21.58-50.17-31.64-81.88-27.98,22.86-18.94,36.49-48.36,40.9-88.25-108.36-15.23-162.28,32.86-136.65,97.57-20.68-89.33,84.5-101.76,126.5-87.55-3.68,70.55-62.55,95.54-110.01,93.51,22.33-21.7,43.77-39.08,64.08-52.15-35.94,18.15-61.79,37.95-77.72,59.6-1.41-.64-3.91-1.77-7.03-3.27-16.11-7.23-48.6-21.95-57.22-18.02-.51.25-1.02.63-1.52.89-1.02-2.16-2.79-4.44-5.33-6.98-3.81-3.93-9.52-8.63-17.13-13.96-5.84-9.64-11.29-16.11-16.37-19.54-5.2-3.55-10.02-4.06-14.46-1.27-3.05-1.65-6.34-2.92-10.02-3.68l-.25-.13h-.25c-2.03.13-3.68.38-5.08,1.02-1.78.89-2.79,2.28-3.05,4.19-.25,1.52.13,3.43,1.14,5.46,1.65,3.55,5.33,8.25,11.04,14.21,3.43,11.67,15.99,30.07,30.58,46.69,14.21,16.24,30.58,30.96,42.38,36.42,13.7,12.56,28.93,22.97,45.42,30.96,15.73,7.61,32.48,13.07,49.99,16.11l-7.49,17.89,4.19,1.78,8.63-20.56-1.78-3.17c-18.02-2.79-35.4-8.25-51.51-16.11-16.24-7.87-31.21-18.14-44.66-30.45l-.25-.25-.38-.13c-11.17-5.08-27.03-19.54-41.11-35.4-14.34-16.49-26.77-34.51-29.82-45.55l-.13-.63-.38-.38c-5.58-5.71-9.14-10.15-10.53-13.45-.63-1.14-.89-2.16-.76-2.79,0-.25.25-.51.51-.76.63-.25,1.65-.38,2.92-.51,5.08,1.27,9.64,3.43,13.45,6.47,3.81,3.3,6.98,7.49,9.52,12.82l.25.38.25.25c7.74,7.23,13.45,13.07,17.26,17.76,3.68,4.19,5.58,7.11,5.71,8.75v1.02l.89.63c2.41,1.78,4.44,3.3,6.22,4.57,1.02.63,1.9,1.27,2.54,1.78v1.4c.25,3.3,1.4,6.34,3.43,8.88,1.9,2.54,4.57,4.44,7.74,5.46,12.43,4.95,21.95,9.01,28.55,12.05-3.81-.63-7.23-1.02-10.15-1.14-6.34-.38-10.91.25-13.83,2.16l2.54,3.81c2.03-1.27,5.71-1.78,11.04-1.52,5.58.38,12.82,1.65,21.7,3.81,12.31,11.8,23.35,20.17,32.99,25.12,2.03,4.82,4.19,8.88,6.34,12.18,2.28,3.55,4.82,6.22,7.49,7.99l2.54-3.81c-2.16-1.4-4.19-3.68-6.22-6.72-1.4-2.03-2.66-4.31-3.93-6.98,8.37,3.05,15.73,3.3,21.95.76l-1.65-4.19c-6.34,2.54-14.08,1.65-23.35-2.79-9.64-4.69-20.68-12.94-33.24-25.12-1.4-1.78-5.46-4.31-12.18-7.61-4.82-2.28-11.29-5.08-19.29-8.37,4.44.13,7.61-1.02,9.77-3.3,1.27-.89,2.28-2.03,3.17-3.43,2.54-4.57-.13-11.93-5.96-15.48,11.8,4.06,26.26,10.66,35.27,14.72,3.55,1.65,6.22,2.92,7.87,3.55l.51.13h.63c9.39-1.27,19.79-.51,31.47,2.28,11.55,2.66,24.36,7.36,38.06,13.96,15.23,8.12,25.63,17.64,31.34,28.29,11.93,22.71,1.14,30.2-2.16,47.96-.89,4.57-.89,9.64.13,15.1l4.44-.89c-.76-4.82-.89-9.26-.13-13.45,3.55-19.16,16.37-23.09,1.78-50.75-6.09-11.55-17.13-21.7-33.12-30.32h-.13c-14.21-6.85-27.28-11.67-39.21-14.46-.97-.22-1.89-.34-2.85-.54.42-.05.84-.09,1.25-.14,49.92,3.7,87.85,13.57,113.51,29.86,0-10.15-7.11-25.25-10.15-30.71,16.37-2.28,31.09-.25,40.48,4.44ZM72.2,237.59c-.51.89-1.02,1.9-1.4,2.92-.25-.13-.51-.38-.76-.63-1.4-.89-3.17-2.28-5.46-3.93-.63-2.41-2.79-5.84-6.47-10.28-3.93-4.57-9.77-10.53-17.38-17.76-2.79-5.71-6.34-10.28-10.66-13.83-.25-.38-.63-.63-.89-.76,2.16-.51,4.57.13,7.23,1.9,4.57,3.17,9.64,9.39,15.23,18.65l.25.38.38.38c7.61,5.33,13.32,9.77,17,13.58,2.79,2.92,4.44,5.2,4.82,6.85-.76.76-1.4,1.65-1.9,2.54ZM102.4,248.76c-.25,1.14-.63,2.28-1.14,3.05-.38.89-1.02,1.52-1.78,1.9l-.38.25-.25.25c-1.14,1.52-3.55,2.28-7.11,2.03-3.81-.13-8.88-1.4-15.23-3.81-1.14-1.65-1.9-3.68-2.03-5.84-.13-2.41.51-4.69,1.65-6.72.76-1.27,1.78-2.41,3.05-3.3,7.11,1.27,12.69,3.05,16.62,5.33,3.55,1.9,5.71,4.19,6.6,6.85ZM262.91,249.14c5.84,1.78,11.55,13.2,13.45,22.59-27.45-13.45-58.36-19.8-92.62-18.99,17.78-3.13,33.05-9.11,45.84-17.89,27.67-1.89,52.06,1.82,63.53,10.87-7.61-.89-18.14-1.9-30.2,3.43Z"/><path class="cls-2" d="M95.45,225.74c7.74,2.36,13.42,4.37,20.27,7.03,6.22,2.54,12.31,5.2,18.4,7.99-7.36-18.91-9.39-39.84-1.02-58.87,9.39-21.44,29.18-34.77,50.75-42,25.25-8.37,53.93-9.26,80.82-6.72-10.47-47.93-55.18-83.22-107.07-78.95-50.45,4.15-90.53,46.16-92.44,96.75-1.09,28.94,10.01,55.32,28.47,74.32l1.81.45ZM240.45,116.53l3.68,7.23c-3.17,0-6.22-.13-9.26-.13-3.3,0-6.6.13-9.77.25-.25-2.41-.76-4.69-1.78-7.11-.89-2.28-2.16-4.69-3.81-6.98-1.65-2.28-3.55-4.57-5.96-6.72-7.61-7.74-16.88-13.7-27.15-17.38,16.11,2.92,29.94,10.78,41.74,23.73-10.53-15.48-26.26-26.9-44.41-32.1,25.38,6.09,44.28,19.16,56.72,39.21Z"/><path class="cls-1" d="M403.69,336.53h-.14c-1.11.24-2.25.36-3.41.36-.82,0-1.67-.07-2.54-.22-6.66-1.59-13.02-5.83-19.05-12.71-6.04-6.88-11.46-14.77-16.26-23.65-4.81-8.89-8.65-17.05-11.52-24.49-2.87-7.44-4.43-12.51-4.67-15.21,2.17-2.99,5.18-5.45,9.02-7.35,3.84-1.91,8.37-2.91,13.58-3.01,1.01-.1,2.37-.94,4.06-2.54,1.69-1.59,3.34-3.45,4.96-5.58,1.62-2.13,2.67-3.74,3.15-4.85.48-1.11.72-1.88.72-2.32,0-.58-.31-.89-.94-.94-7.92.29-15.14,2.75-21.66,7.39-6.52,4.64-12.4,10.42-17.64,17.35-5.24,6.93-9.67,13.95-13.29,21.05.29-1.26,1.15-4.58,2.57-9.96,1.43-5.39,2.87-10.87,4.35-16.45,1.47-5.58,2.47-9.24,3.01-10.98,14.2-4.78,27.32-11.62,39.38-20.5,12.05-8.89,22.76-19.18,32.13-30.86,2.9-3.57,5.89-7.63,8.98-12.17,3.09-4.54,5.98-9.32,8.66-14.35,2.68-5.02,4.87-10.06,6.56-15.11,1.69-5.05,2.54-9.79,2.54-14.24,0-18.55-9.08-27.82-27.24-27.82-8.07,0-16.52,4.32-25.36,12.97-7.2,7.1-14.06,16.08-20.58,26.95-7.1,11.79-12.56,23.3-16.37,34.56-2.61,7.53-6.21,19.1-10.8,34.7l-3.7,12.03c-6.09-1.69-9.78-4.4-11.08-8.11-1.3-3.72-1.96-6.69-1.96-8.91,0-3.53.82-6.91,2.46-10.14,1.01-1.74,1.52-2.92,1.52-3.55v-.58c0-.43-.27-.65-.8-.65-.92.05-2.29.82-4.13,2.32-1.84,1.5-3.73,3.54-5.69,6.12-1.96,2.58-3.65,5.53-5.07,8.84-1.42,3.31-2.14,6.77-2.14,10.4,0,6.81,1.7,11.99,5.11,15.54,3.41,3.55,7.93,5.33,13.58,5.33,1.06,0,2.17-.05,3.33-.14-1.16,3.48-3.67,12.51-7.53,27.1-5.26,19.71-7.9,32.05-7.9,37.02,0,2.46.58,3.69,1.74,3.69s2.95-1.01,5.22-3.04c3.67-3.48,6.53-7.14,8.58-10.98,2.05-3.84,3.85-7.74,5.4-11.7l1.45-3.69c2.8,8.4,6.57,17.34,11.3,26.81,5.94,11.93,12.34,21.64,19.2,29.12,8.26,9.18,16.52,13.77,24.78,13.77,1.74,0,3.63-.88,5.69-2.64,2.05-1.76,3.89-3.74,5.51-5.94,1.62-2.2,2.64-3.86,3.08-5,.43-1.14.65-1.87.65-2.21,0-.53-.27-.8-.8-.8ZM355.36,184.02c2.95-9.56,5.41-16.8,7.39-21.7,1.98-4.9,4.27-9.74,6.88-14.53,6.66-12.36,13.04-19.75,19.13-22.17,2.9-1.16,5.92-1.74,9.06-1.74,6.18,0,11.06,1.2,14.64,3.59,3.57,2.39,6.12,5.65,7.64,9.78,1.52,4.13,2.28,8.8,2.28,14.02,0,6.18-2.19,13.26-6.56,21.23-4.37,7.97-10.3,15.82-17.79,23.55-7.49,7.73-16.04,14.51-25.65,20.36-9.61,5.84-19.73,9.85-30.36,12.03,6.52-21.98,10.96-36.78,13.33-44.41Z"/><path class="cls-1" d="M851.2,233.68h-178.31l-1.85,8.63h57.59c.99,0,1.72.42,2.18,1.27.47.85.62,1.88.47,3.11-.23,1.15-1.04,2.29-2.42,3.4-1.39,1.11-3.17,2.11-5.36,2.99-2.18.88-4.71,1.65-7.55,2.31-2.84.66-5.83,1.1-8.98,1.32-5.07.46-9.91,1.32-14.51,2.6-4.61,1.27-8.68,2.84-12.21,4.71-3.53,1.88-6.45,3.97-8.75,6.28-2.31,2.31-3.68,4.69-4.14,7.14-.04.17-.03.33-.06.5-.02.03-.05.05-.07.08-1.76,2.2-3.44,4.55-5.04,7.06-1.5,2.22-2.99,4.32-4.49,6.3-3.53,4.54-7.24,6.81-11.16,6.81-1.21,0-2.1-.57-2.68-1.7-.58-1.14-.93-2.44-1.05-3.91-.12-1.47-.18-2.84-.18-4.09,0-1.64.12-3.55.36-5.72.63-4.3,2.14-11.08,4.53-20.36,2.39-9.27,4.65-17.15,6.77-23.62.58-1.55.87-2.68.87-3.41,0-.68-.27-1.01-.8-1.01h-.07c-9.23-1.3-18.48-1.96-27.75-1.96-12.9,0-22.97,1.38-30.21,4.13-1.16.53-2.66,1.74-4.49,3.62-1.84,1.88-3.51,3.91-5.04,6.09-1.52,2.17-2.28,3.82-2.28,4.93,0,.68.27,1.01.8,1.01.48,0,1.47-.29,2.97-.87,4.3-1.45,10.29-2.29,17.97-2.54-8.07,6.57-15.02,14.85-20.87,24.85-.43.74-.81,1.45-1.2,2.18-.44.42-.86.86-1.26,1.34-1.45,1.71-2.99,3.78-4.64,6.19-1.4,1.98-3.07,4.25-5,6.81l-.07.07c-1.69,2.03-3.09,3.51-4.2,4.46-1.11.94-2.03,1.51-2.75,1.7-.72.19-1.43.29-2.1.29-2.32,0-4-.82-5.04-2.46-1.04-1.64-1.61-3.3-1.7-4.96-.1-1.67-.14-2.81-.14-3.44,0-4.35.87-10.22,2.61-17.61.82-3.48,1.64-6.76,2.46-9.85,1.93-7.24,2.9-12.34,2.9-15.29,0-1.69-.22-3.26-.65-4.71-.77-2.7-2.9-4.15-6.38-4.35-4.06.19-8.44,2.6-13.15,7.21-4.71,4.61-9.12,9.78-13.22,15.5-4.11,5.72-7.24,10.4-9.42,14.02,1.11-3.91,2.34-8.77,3.7-14.56,1.11-4.78,1.67-9.13,1.67-13.04,0-1.59-.09-3.08-.25-4.46-.17-1.38-.49-2.5-.98-3.37-.48-.87-1.26-1.3-2.32-1.3-2.9,0-6.01,1.16-9.35,3.48-3.33,2.32-6.68,5.28-10.03,8.88-3.36,3.6-6.58,7.41-9.67,11.45-3.09,4.03-5.86,7.85-8.3,11.45-2.44,3.6-4.36,6.53-5.76,8.8.72-2.9,2.85-10.89,6.38-23.98,3.28-12.36,4.94-18.64,4.96-18.84s.04-.34.04-.43c0-.53-.31-.8-.94-.8-.97.14-2.37,1.07-4.2,2.79-1.83,1.71-3.59,3.67-5.25,5.87-1.67,2.2-2.74,4.07-3.22,5.61l-7.32,27.46c-.14.53-.27,1.03-.41,1.55-.21.24-.43.47-.64.73-1.76,2.2-3.44,4.55-5.04,7.06-1.5,2.22-2.99,4.32-4.49,6.3-3.53,4.54-7.24,6.81-11.16,6.81-1.21,0-2.1-.57-2.68-1.7-.58-1.14-.93-2.44-1.05-3.91-.12-1.47-.18-2.84-.18-4.09,0-1.64.12-3.55.36-5.72.63-4.3,2.14-11.08,4.53-20.36,2.39-9.27,4.65-17.15,6.77-23.62.58-1.55.87-2.68.87-3.41,0-.68-.27-1.01-.8-1.01h-.07c-9.23-1.3-18.47-1.96-27.75-1.96-12.9,0-22.97,1.38-30.21,4.13-1.16.53-2.66,1.74-4.49,3.62-1.84,1.88-3.51,3.91-5.04,6.09-1.52,2.17-2.28,3.82-2.28,4.93,0,.68.27,1.01.8,1.01.48,0,1.47-.29,2.97-.87,4.3-1.45,10.29-2.29,17.97-2.54-8.07,6.57-15.02,14.85-20.87,24.85-5.65,9.76-8.48,18.23-8.48,25.43,0,4.4,1.33,7.85,3.98,10.36,2.37,2.32,6.11,3.48,11.23,3.48,12.17,0,25.45-10.36,39.85-31.08-2.22,9.52-3.33,16.57-3.33,21.16,0,4.15.65,7.2,1.96,9.13,1.01,1.55,2.61,2.32,4.78,2.32,3.19,0,6.59-1.28,10.22-3.84,3.62-2.56,7.16-5.74,10.61-9.53,2.84-3.11,5.45-6.28,7.86-9.49-3.62,13.66-5.43,20.61-5.43,20.82,0,.48.19.72.58.72h.29c1.35-.34,3.03-1.52,5.04-3.55,2-2.03,3.59-3.89,4.75-5.58,2.8-4.2,6.16-9.73,10.07-16.59,5.99-10.53,11.08-18.81,15.29-24.85,5.75-8.21,10.19-12.32,13.33-12.32,1.69,0,2.56.83,2.61,2.5.05,1.67.07,2.67.07,3.01,0,8.74-3.62,24.83-10.87,48.25l-.15.58c-1.5,4.3-2.25,6.81-2.25,7.53,0,.48.24.72.72.72.77,0,1.96-.65,3.55-1.96,3.86-3.14,6.76-6.71,8.69-10.72,10.67-22.02,19.42-37.19,26.23-45.5,2.42-2.95,4.4-4.42,5.94-4.42,2.17,0,3.63.66,4.38,1.99.75,1.33,1.12,3.01,1.12,5.04,0,2.27-.41,5.29-1.23,9.06-.72,3.09-1.55,6.35-2.46,9.78-2.95,10.43-4.42,18.14-4.42,23.11,0,4.69,1.06,8.4,3.19,11.16,1.3,1.74,3.12,2.61,5.43,2.61,2.66,0,5.81-1.36,9.45-4.09,3.65-2.73,7.31-6.09,10.98-10.07,1.87-2.03,3.65-4.07,5.33-6.11-.44,2.22-.69,4.35-.69,6.37,0,4.4,1.33,7.85,3.98,10.36,2.37,2.32,6.11,3.48,11.23,3.48,12.17,0,25.45-10.36,39.85-31.08-2.22,9.52-3.33,16.57-3.33,21.16,0,4.15.65,7.2,1.96,9.13,1.01,1.55,2.61,2.32,4.78,2.32,3.19,0,6.59-1.28,10.22-3.84,3.62-2.56,7.16-5.74,10.61-9.53,3.45-3.79,6.59-7.66,9.42-11.59,1.04-1.44,1.97-2.79,2.85-4.1.09.18.15.36.25.53,1.54,2.65,3.92,4.96,7.14,6.91,3.22,1.96,7.16,3.5,11.81,4.61,4.64,1.12,9.73,1.67,15.26,1.67.38,2.31,1.25,4.41,2.59,6.34,1.34,1.92,3.06,3.57,5.13,4.95,2.07,1.39,4.51,2.47,7.31,3.22,2.8.77,5.82,1.15,9.05,1.15.75,0,1.6-.1,2.51-.26-.47,1.13-.8,2.27-.97,3.43-.24,1.66-.09,3.34.47,5.06-.13-.18-.08.01.14.6.22.58.52,1.39.92,2.44.4,1.04.86,2.18,1.38,3.4.53,1.23,1,2.37,1.43,3.41.43,1.04.78,1.89,1.06,2.53.28.64.41.88.41.69,0,.06.03.13.09.19.25.62.58,1.23,1.02,1.84.43.49.9.94,1.43,1.38.53.43,1.06.79,1.61,1.1,1.23.67,2.52,1.14,3.88,1.39,1.35.24,2.7.31,4.05.18,1.11-.06,2.16-.29,3.18-.69,1.01-.4,1.89-.94,2.63-1.61.73-.67,1.3-1.48,1.71-2.39.4-.92.5-2,.32-3.23-.12-.31-.25-.64-.41-1.01-.15-.37-.29-.7-.41-1.01-.31-.79-.62-1.6-.92-2.39-.31-.8-.61-1.6-.92-2.4-.31-.8-.63-1.58-.97-2.35-.34-.77-.69-1.58-1.06-2.44-.12-.25-.28-.55-.46-.92-.18-.37-.3-.7-.37-1.01.19,1.23.1,2.3-.28,3.22-.37.92-.92,1.71-1.66,2.35-.73.65-1.6,1.16-2.58,1.56-.98.4-2.03.66-3.13.79-.99.12-2,.12-3.04,0-1.05-.13-2.05-.34-3.04-.64l.83-1.93c1.04-1.84,2.47-3.29,4.28-4.33,1.82-1.04,3.74-1.72,5.76-2.02,3.44-.55,6.94-.34,10.51.64,3.56.98,6.64,2.64,9.22,4.98-.12,1.59-.44,3.19-.92,4.78-.49,1.6-1.07,3.13-1.75,4.61-.68,1.35-1.36,2.68-2.08,4-.71,1.32-1.43,2.63-2.17,3.92-1.47,2.45-3.1,4.82-4.88,7.09-3.62,4.48-7.82,8.31-12.58,11.47-4.76,3.16-9.82,5.79-15.16,7.87-5.77,2.21-11.7,3.84-17.79,4.89-6.07,1.04-12.19,1.5-18.33,1.38-5.77-.13-11.41-.89-16.92-2.3-5.49-1.42-10.86-3.32-16.08-5.71-5.59-2.58-10.95-5.53-16.08-8.85-5.13-3.31-10.15-6.79-15.07-10.41-2.71-1.97-5.44-3.89-8.2-5.76-2.77-1.87-5.56-3.7-8.39-5.48-2.77-1.78-5.57-3.46-8.43-5.02-2.86-1.57-5.76-3.06-8.71-4.47-5.83-2.71-11.86-4.72-18.07-6.04-6.2-1.32-12.53-1.61-18.98-.87-3.13.31-6.18.87-9.12,1.7-2.95.82-5.81,1.95-8.58,3.36-4.85,2.4-9.18,5.47-12.99,9.22-1.17,1.1-2.27,2.3-3.31,3.59-1.05,1.29-1.98,2.65-2.82,4.1-.82,1.44-1.47,2.95-1.93,4.51-.45,1.57-.69,3.18-.69,4.84,0,.8.08,1.57.24,2.3.15.74.35,1.45.59,2.12.13.25.2.46.23.64.03.19.1.4.22.64-.06,0,.16.64.64,1.93.49,1.29,1.05,2.68,1.67,4.19.62,1.51,1.2,2.92,1.75,4.24.56,1.32.89,2.02,1.01,2.08.06.25.22.61.47,1.1.86,1.78,1.98,3.38,3.36,4.79,1.38,1.42,2.88,2.71,4.47,3.87-.12-.12-.27-.47-.46-1.06-.19-.58-.28-.91-.28-.97-.31-.86-.63-1.67-.97-2.44-.34-.76-.66-1.55-.97-2.35-.31-.79-.63-1.58-.97-2.35-.34-.77-.66-1.58-.97-2.44-.06-.12-.18-.44-.37-.97-.19-.52-.34-.85-.46-.97-.68-.49-1.3-.97-1.89-1.42-.59-.46-1.16-.94-1.71-1.43.18-1.84.68-3.61,1.47-5.29.81-1.69,1.75-3.32,2.86-4.89,1.1-1.57,2.33-3.02,3.68-4.37,1.36-1.36,2.74-2.58,4.15-3.69,4.18-3.31,8.73-5.96,13.63-7.93,3.01-1.23,6.16-2.11,9.45-2.67,3.28-.55,6.59-.86,9.91-.92,6.46-.12,12.72.76,18.8,2.68,6.08,1.9,11.95,4.33,17.6,7.27,5.96,3.07,11.65,6.46,17.05,10.18,5.41,3.72,10.81,7.51,16.22,11.38,4.91,3.5,9.92,6.79,15.02,9.85,5.1,3.07,10.44,5.71,16.03,7.93,10.87,4.36,22.15,6.36,33.82,5.99,5.77-.19,11.59-.91,17.46-2.17,5.86-1.26,11.5-3.1,16.91-5.53,5.41-2.43,10.43-5.47,15.07-9.13,4.64-3.65,8.62-7.97,11.94-12.94.85-1.23,1.64-2.49,2.35-3.78.7-1.29,1.4-2.58,2.08-3.87,1.53-2.71,2.7-5.38,3.49-8.02.38-1.29.63-2.59.78-3.91.16-1.33.18-2.62.05-3.92-.06-.68-.17-1.29-.32-1.84-.15-.55-.32-1.14-.51-1.75-.06-.12-.1-.28-.14-.46-.03-.19-.1-.34-.23-.46.07-.06-.17-.75-.69-2.07-.52-1.32-1.09-2.77-1.7-4.33-.62-1.57-1.2-2.99-1.75-4.28-.56-1.29-.86-1.9-.91-1.84,0-.06-.07-.21-.2-.46-.97-2.27-2.34-4.22-4.09-5.85-1.75-1.63-3.72-2.95-5.89-3.97-2.18-1.01-4.5-1.69-6.96-2.02-2.46-.34-4.86-.32-7.18.04-1.5.21-2.92.64-4.26,1.25-3.01-.29-5.69-1.13-8.01-2.56-2.92-1.81-5-4.25-6.22-7.32,3.77,0,7.4-.4,10.88-1.21,3.5-.81,6.63-1.93,9.39-3.39,2.76-1.46,5.07-3.15,6.91-5.07,1.85-1.91,3-3.99,3.46-6.21.46-1.92.26-3.77-.58-5.53-.84-1.77-2.16-3.28-3.96-4.56-1.81-1.27-4.04-2.28-6.68-3.05-2.65-.77-5.55-1.15-8.7-1.15-3.76,0-7.39.4-10.88,1.21-3.5.81-6.63,1.94-9.39,3.39-2.76,1.46-5.04,3.15-6.85,5.07-1.8,1.92-2.93,3.96-3.39,6.1-.38,2.01-.64,3.73-.75,5.18-.11,1.46-.02,2.58.29,3.35-3.62-.31-6.36-1.81-8.24-4.5-1.88-2.68-2.4-5.94-1.56-9.79.46-2,1.57-3.97,3.34-5.93,1.77-1.96,4.04-3.76,6.8-5.41,2.76-1.65,5.93-3.11,9.5-4.38,3.57-1.27,7.4-2.25,11.46-2.94,4.3-.76,8.31-1.59,12.04-2.47,3.72-.88,6.96-1.82,9.73-2.82,2.76-.99,5-2.05,6.68-3.17,1.69-1.11,2.65-2.32,2.88-3.63.23-1.08-.23-2.53-1.38-4.38h11.98l.02-.08h46.92c-.22.91-.91,1.69-2.05,2.34-1.14.64-2.64,1.25-4.49,1.82-1.86.57-4.04,1.08-6.54,1.54-2.5.45-5.23.91-8.19,1.37-3.41.6-6.55,1.2-9.44,1.76-2.88.57-5.4,1.18-7.56,1.83-2.16.64-3.89,1.36-5.17,2.16-1.29.8-2.05,1.69-2.28,2.68-.38,1.98,1.06,3.84,4.32,5.58,3.27,1.74,7.63,3.68,13.09,5.81-6.9,3.57-12.51,7.25-16.83,11.05-4.32,3.79-6.83,7.25-7.51,10.37-.68,3.34-.55,6.47.4,9.4.94,2.92,2.54,5.46,4.78,7.63,2.24,2.16,5.04,3.88,8.41,5.13,3.38,1.25,7.11,1.88,11.21,1.88,3.1,0,6.1-.5,8.98-1.48,2.89-.99,5.42-2.36,7.63-4.11-3.34-.6-6.31-1.63-8.93-3.07-2.61-1.45-4.78-3.19-6.48-5.25-1.71-2.05-2.91-4.3-3.58-6.78-.68-2.47-.76-5.03-.23-7.69.76-3.64,2.12-6.82,4.09-9.51,1.97-2.7,4.25-4.46,6.83-5.3l12.73,3.53c2.73.54,4.81,1.88,6.26,4.05,1.44,2.16,1.81,4.57,1.14,7.23-.16.91-1.05,1.99-2.68,3.25-1.63,1.25-3.78,2.57-6.42,3.93.91.83,2.54,1.48,4.89,1.94,2.35.45,5.23.72,8.64.8,2.42,0,4.79-.36,7.11-1.09,2.31-.72,4.4-1.72,6.26-3.01,1.85-1.3,3.42-2.8,4.72-4.51,1.29-1.71,2.16-3.55,2.61-5.53.31-1.6,0-3.19-.91-4.79-.91-1.6-2.37-3.1-4.38-4.5-2.01-1.41-4.45-2.66-7.34-3.77-2.88-1.09-6.06-1.96-9.55-2.56-2.8-.53-5.36-1.12-7.67-1.77-2.31-.64-4.27-1.33-5.86-2.05-1.59-.72-2.8-1.48-3.64-2.28-.84-.8-1.18-1.65-1.03-2.56.15-.76.7-1.31,1.65-1.65.95-.34,2.2-.63,3.76-.85,1.55-.23,3.39-.45,5.52-.63,2.12-.19,4.47-.51,7.05-.97,2.73-.45,5.27-.93,7.62-1.42,2.35-.49,4.4-1.03,6.14-1.59,1.75-.57,3.15-1.18,4.21-1.83,1.06-.64,1.7-1.38,1.93-2.22.3-1.59.11-3.04-.57-4.33h14.89l1.82-8.55ZM405.06,296.39h-.22c-4.25,0-7.17-1.45-8.77-4.35-1.21-2.13-1.81-4.64-1.81-7.53,0-5.26,1.64-10.7,4.93-16.3,2.41-4.2,5.53-7.53,9.35-10,4.44-2.61,9.91-4.55,16.41-5.83,6.5-1.28,12.93-1.92,19.31-1.92-10.48,30.43-23.55,45.74-39.2,45.93ZM601.76,296.39h-.22c-4.25,0-7.17-1.45-8.77-4.35-1.21-2.13-1.81-4.64-1.81-7.53,0-5.26,1.64-10.7,4.93-16.3,2.41-4.2,5.53-7.53,9.35-10,4.44-2.61,9.91-4.55,16.41-5.83,6.5-1.28,12.93-1.92,19.31-1.92-10.48,30.43-23.55,45.74-39.2,45.93ZM727.42,279.97c2.65-2.61,5.74-3.91,9.27-3.91.69,0,1.25.28,1.67.86.42.57.6,1.25.52,2.02-.62,2.61-2.46,5.01-5.53,7.2-3.07,2.18-6.8,3.63-11.17,4.32.84-4.38,2.59-7.87,5.24-10.49Z"/><path class="cls-1" d="M403.69,336.53h-.14c-1.11.24-2.25.36-3.41.36-.82,0-1.67-.07-2.54-.22-6.66-1.59-13.02-5.83-19.05-12.71-6.04-6.88-11.46-14.77-16.26-23.65-4.81-8.89-8.65-17.05-11.52-24.49-2.87-7.44-4.43-12.51-4.67-15.21,2.17-2.99,5.18-5.45,9.02-7.35,3.84-1.91,8.37-2.91,13.58-3.01,1.01-.1,2.37-.94,4.06-2.54,1.69-1.59,3.34-3.45,4.96-5.58,1.62-2.13,2.67-3.74,3.15-4.85.48-1.11.72-1.88.72-2.32,0-.58-.31-.89-.94-.94-7.92.29-15.14,2.75-21.66,7.39-6.52,4.64-12.4,10.42-17.64,17.35-5.24,6.93-9.67,13.95-13.29,21.05.29-1.26,1.15-4.58,2.57-9.96,1.43-5.39,2.87-10.87,4.35-16.45,1.47-5.58,2.47-9.24,3.01-10.98,14.2-4.78,27.32-11.62,39.38-20.5,12.05-8.89,22.76-19.18,32.13-30.86,2.9-3.57,5.89-7.63,8.98-12.17,3.09-4.54,5.98-9.32,8.66-14.35,2.68-5.02,4.87-10.06,6.56-15.11,1.69-5.05,2.54-9.79,2.54-14.24,0-18.55-9.08-27.82-27.24-27.82-8.07,0-16.52,4.32-25.36,12.97-7.2,7.1-14.06,16.08-20.58,26.95-7.1,11.79-12.56,23.3-16.37,34.56-2.61,7.53-6.21,19.1-10.8,34.7l-3.7,12.03c-6.09-1.69-9.78-4.4-11.08-8.11-1.3-3.72-1.96-6.69-1.96-8.91,0-3.53.82-6.91,2.46-10.14,1.01-1.74,1.52-2.92,1.52-3.55v-.58c0-.43-.27-.65-.8-.65-.92.05-2.29.82-4.13,2.32-1.84,1.5-3.73,3.54-5.69,6.12-1.96,2.58-3.65,5.53-5.07,8.84-1.42,3.31-2.14,6.77-2.14,10.4,0,6.81,1.7,11.99,5.11,15.54,3.41,3.55,7.93,5.33,13.58,5.33,1.06,0,2.17-.05,3.33-.14-1.16,3.48-3.67,12.51-7.53,27.1-5.26,19.71-7.9,32.05-7.9,37.02,0,2.46.58,3.69,1.74,3.69s2.95-1.01,5.22-3.04c3.67-3.48,6.53-7.14,8.58-10.98,2.05-3.84,3.85-7.74,5.4-11.7l1.45-3.69c2.8,8.4,6.57,17.34,11.3,26.81,5.94,11.93,12.34,21.64,19.2,29.12,8.26,9.18,16.52,13.77,24.78,13.77,1.74,0,3.63-.88,5.69-2.64,2.05-1.76,3.89-3.74,5.51-5.94,1.62-2.2,2.64-3.86,3.08-5,.43-1.14.65-1.87.65-2.21,0-.53-.27-.8-.8-.8ZM355.36,184.02c2.95-9.56,5.41-16.8,7.39-21.7,1.98-4.9,4.27-9.74,6.88-14.53,6.66-12.36,13.04-19.75,19.13-22.17,2.9-1.16,5.92-1.74,9.06-1.74,6.18,0,11.06,1.2,14.64,3.59,3.57,2.39,6.12,5.65,7.64,9.78,1.52,4.13,2.28,8.8,2.28,14.02,0,6.18-2.19,13.26-6.56,21.23-4.37,7.97-10.3,15.82-17.79,23.55-7.49,7.73-16.04,14.51-25.65,20.36-9.61,5.84-19.73,9.85-30.36,12.03,6.52-21.98,10.96-36.78,13.33-44.41Z"/><path class="cls-1" d="M851.2,233.68h-178.31l-1.85,8.63h57.59c.99,0,1.72.42,2.18,1.27.47.85.62,1.88.47,3.11-.23,1.15-1.04,2.29-2.42,3.4-1.39,1.11-3.17,2.11-5.36,2.99-2.18.88-4.71,1.65-7.55,2.31-2.84.66-5.83,1.1-8.98,1.32-5.07.46-9.91,1.32-14.51,2.6-4.61,1.27-8.68,2.84-12.21,4.71-3.53,1.88-6.45,3.97-8.75,6.28-2.31,2.31-3.68,4.69-4.14,7.14-.04.17-.03.33-.06.5-.02.03-.05.05-.07.08-1.76,2.2-3.44,4.55-5.04,7.06-1.5,2.22-2.99,4.32-4.49,6.3-3.53,4.54-7.24,6.81-11.16,6.81-1.21,0-2.1-.57-2.68-1.7-.58-1.14-.93-2.44-1.05-3.91-.12-1.47-.18-2.84-.18-4.09,0-1.64.12-3.55.36-5.72.63-4.3,2.14-11.08,4.53-20.36,2.39-9.27,4.65-17.15,6.77-23.62.58-1.55.87-2.68.87-3.41,0-.68-.27-1.01-.8-1.01h-.07c-9.23-1.3-18.48-1.96-27.75-1.96-12.9,0-22.97,1.38-30.21,4.13-1.16.53-2.66,1.74-4.49,3.62-1.84,1.88-3.51,3.91-5.04,6.09-1.52,2.17-2.28,3.82-2.28,4.93,0,.68.27,1.01.8,1.01.48,0,1.47-.29,2.97-.87,4.3-1.45,10.29-2.29,17.97-2.54-8.07,6.57-15.02,14.85-20.87,24.85-.43.74-.81,1.45-1.2,2.18-.44.42-.86.86-1.26,1.34-1.45,1.71-2.99,3.78-4.64,6.19-1.4,1.98-3.07,4.25-5,6.81l-.07.07c-1.69,2.03-3.09,3.51-4.2,4.46-1.11.94-2.03,1.51-2.75,1.7-.72.19-1.43.29-2.1.29-2.32,0-4-.82-5.04-2.46-1.04-1.64-1.61-3.3-1.7-4.96-.1-1.67-.14-2.81-.14-3.44,0-4.35.87-10.22,2.61-17.61.82-3.48,1.64-6.76,2.46-9.85,1.93-7.24,2.9-12.34,2.9-15.29,0-1.69-.22-3.26-.65-4.71-.77-2.7-2.9-4.15-6.38-4.35-4.06.19-8.44,2.6-13.15,7.21-4.71,4.61-9.12,9.78-13.22,15.5-4.11,5.72-7.24,10.4-9.42,14.02,1.11-3.91,2.34-8.77,3.7-14.56,1.11-4.78,1.67-9.13,1.67-13.04,0-1.59-.09-3.08-.25-4.46-.17-1.38-.49-2.5-.98-3.37-.48-.87-1.26-1.3-2.32-1.3-2.9,0-6.01,1.16-9.35,3.48-3.33,2.32-6.68,5.28-10.03,8.88-3.36,3.6-6.58,7.41-9.67,11.45-3.09,4.03-5.86,7.85-8.3,11.45-2.44,3.6-4.36,6.53-5.76,8.8.72-2.9,2.85-10.89,6.38-23.98,3.28-12.36,4.94-18.64,4.96-18.84s.04-.34.04-.43c0-.53-.31-.8-.94-.8-.97.14-2.37,1.07-4.2,2.79-1.83,1.71-3.59,3.67-5.25,5.87-1.67,2.2-2.74,4.07-3.22,5.61l-7.32,27.46c-.14.53-.27,1.03-.41,1.55-.21.24-.43.47-.64.73-1.76,2.2-3.44,4.55-5.04,7.06-1.5,2.22-2.99,4.32-4.49,6.3-3.53,4.54-7.24,6.81-11.16,6.81-1.21,0-2.1-.57-2.68-1.7-.58-1.14-.93-2.44-1.05-3.91-.12-1.47-.18-2.84-.18-4.09,0-1.64.12-3.55.36-5.72.63-4.3,2.14-11.08,4.53-20.36,2.39-9.27,4.65-17.15,6.77-23.62.58-1.55.87-2.68.87-3.41,0-.68-.27-1.01-.8-1.01h-.07c-9.23-1.3-18.47-1.96-27.75-1.96-12.9,0-22.97,1.38-30.21,4.13-1.16.53-2.66,1.74-4.49,3.62-1.84,1.88-3.51,3.91-5.04,6.09-1.52,2.17-2.28,3.82-2.28,4.93,0,.68.27,1.01.8,1.01.48,0,1.47-.29,2.97-.87,4.3-1.45,10.29-2.29,17.97-2.54-8.07,6.57-15.02,14.85-20.87,24.85-5.65,9.76-8.48,18.23-8.48,25.43,0,4.4,1.33,7.85,3.98,10.36,2.37,2.32,6.11,3.48,11.23,3.48,12.17,0,25.45-10.36,39.85-31.08-2.22,9.52-3.33,16.57-3.33,21.16,0,4.15.65,7.2,1.96,9.13,1.01,1.55,2.61,2.32,4.78,2.32,3.19,0,6.59-1.28,10.22-3.84,3.62-2.56,7.16-5.74,10.61-9.53,2.84-3.11,5.45-6.28,7.86-9.49-3.62,13.66-5.43,20.61-5.43,20.82,0,.48.19.72.58.72h.29c1.35-.34,3.03-1.52,5.04-3.55,2-2.03,3.59-3.89,4.75-5.58,2.8-4.2,6.16-9.73,10.07-16.59,5.99-10.53,11.08-18.81,15.29-24.85,5.75-8.21,10.19-12.32,13.33-12.32,1.69,0,2.56.83,2.61,2.5.05,1.67.07,2.67.07,3.01,0,8.74-3.62,24.83-10.87,48.25l-.15.58c-1.5,4.3-2.25,6.81-2.25,7.53,0,.48.24.72.72.72.77,0,1.96-.65,3.55-1.96,3.86-3.14,6.76-6.71,8.69-10.72,10.67-22.02,19.42-37.19,26.23-45.5,2.42-2.95,4.4-4.42,5.94-4.42,2.17,0,3.63.66,4.38,1.99.75,1.33,1.12,3.01,1.12,5.04,0,2.27-.41,5.29-1.23,9.06-.72,3.09-1.55,6.35-2.46,9.78-2.95,10.43-4.42,18.14-4.42,23.11,0,4.69,1.06,8.4,3.19,11.16,1.3,1.74,3.12,2.61,5.43,2.61,2.66,0,5.81-1.36,9.45-4.09,3.65-2.73,7.31-6.09,10.98-10.07,1.87-2.03,3.65-4.07,5.33-6.11-.44,2.22-.69,4.35-.69,6.37,0,4.4,1.33,7.85,3.98,10.36,2.37,2.32,6.11,3.48,11.23,3.48,12.17,0,25.45-10.36,39.85-31.08-2.22,9.52-3.33,16.57-3.33,21.16,0,4.15.65,7.2,1.96,9.13,1.01,1.55,2.61,2.32,4.78,2.32,3.19,0,6.59-1.28,10.22-3.84,3.62-2.56,7.16-5.74,10.61-9.53,3.45-3.79,6.59-7.66,9.42-11.59,1.04-1.44,1.97-2.79,2.85-4.1.09.18.15.36.25.53,1.54,2.65,3.92,4.96,7.14,6.91,3.22,1.96,7.16,3.5,11.81,4.61,4.64,1.12,9.73,1.67,15.26,1.67.38,2.31,1.25,4.41,2.59,6.34,1.34,1.92,3.06,3.57,5.13,4.95,2.07,1.39,4.51,2.47,7.31,3.22,2.8.77,5.82,1.15,9.05,1.15.75,0,1.6-.1,2.51-.26-.47,1.13-.8,2.27-.97,3.43-.24,1.66-.09,3.34.47,5.06-.13-.18-.08.01.14.6.22.58.52,1.39.92,2.44.4,1.04.86,2.18,1.38,3.4.53,1.23,1,2.37,1.43,3.41.43,1.04.78,1.89,1.06,2.53.28.64.41.88.41.69,0,.06.03.13.09.19.25.62.58,1.23,1.02,1.84.43.49.9.94,1.43,1.38.53.43,1.06.79,1.61,1.1,1.23.67,2.52,1.14,3.88,1.39,1.35.24,2.7.31,4.05.18,1.11-.06,2.16-.29,3.18-.69,1.01-.4,1.89-.94,2.63-1.61.73-.67,1.3-1.48,1.71-2.39.4-.92.5-2,.32-3.23-.12-.31-.25-.64-.41-1.01-.15-.37-.29-.7-.41-1.01-.31-.79-.62-1.6-.92-2.39-.31-.8-.61-1.6-.92-2.4-.31-.8-.63-1.58-.97-2.35-.34-.77-.69-1.58-1.06-2.44-.12-.25-.28-.55-.46-.92-.18-.37-.3-.7-.37-1.01.19,1.23.1,2.3-.28,3.22-.37.92-.92,1.71-1.66,2.35-.73.65-1.6,1.16-2.58,1.56-.98.4-2.03.66-3.13.79-.99.12-2,.12-3.04,0-1.05-.13-2.05-.34-3.04-.64l.83-1.93c1.04-1.84,2.47-3.29,4.28-4.33,1.82-1.04,3.74-1.72,5.76-2.02,3.44-.55,6.94-.34,10.51.64,3.56.98,6.64,2.64,9.22,4.98-.12,1.59-.44,3.19-.92,4.78-.49,1.6-1.07,3.13-1.75,4.61-.68,1.35-1.36,2.68-2.08,4-.71,1.32-1.43,2.63-2.17,3.92-1.47,2.45-3.1,4.82-4.88,7.09-3.62,4.48-7.82,8.31-12.58,11.47-4.76,3.16-9.82,5.79-15.16,7.87-5.77,2.21-11.7,3.84-17.79,4.89-6.07,1.04-12.19,1.5-18.33,1.38-5.77-.13-11.41-.89-16.92-2.3-5.49-1.42-10.86-3.32-16.08-5.71-5.59-2.58-10.95-5.53-16.08-8.85-5.13-3.31-10.15-6.79-15.07-10.41-2.71-1.97-5.44-3.89-8.2-5.76-2.77-1.87-5.56-3.7-8.39-5.48-2.77-1.78-5.57-3.46-8.43-5.02-2.86-1.57-5.76-3.06-8.71-4.47-5.83-2.71-11.86-4.72-18.07-6.04-6.2-1.32-12.53-1.61-18.98-.87-3.13.31-6.18.87-9.12,1.7-2.95.82-5.81,1.95-8.58,3.36-4.85,2.4-9.18,5.47-12.99,9.22-1.17,1.1-2.27,2.3-3.31,3.59-1.05,1.29-1.98,2.65-2.82,4.1-.82,1.44-1.47,2.95-1.93,4.51-.45,1.57-.69,3.18-.69,4.84,0,.8.08,1.57.24,2.3.15.74.35,1.45.59,2.12.13.25.2.46.23.64.03.19.1.4.22.64-.06,0,.16.64.64,1.93.49,1.29,1.05,2.68,1.67,4.19.62,1.51,1.2,2.92,1.75,4.24.56,1.32.89,2.02,1.01,2.08.06.25.22.61.47,1.1.86,1.78,1.98,3.38,3.36,4.79,1.38,1.42,2.88,2.71,4.47,3.87-.12-.12-.27-.47-.46-1.06-.19-.58-.28-.91-.28-.97-.31-.86-.63-1.67-.97-2.44-.34-.76-.66-1.55-.97-2.35-.31-.79-.63-1.58-.97-2.35-.34-.77-.66-1.58-.97-2.44-.06-.12-.18-.44-.37-.97-.19-.52-.34-.85-.46-.97-.68-.49-1.3-.97-1.89-1.42-.59-.46-1.16-.94-1.71-1.43.18-1.84.68-3.61,1.47-5.29.81-1.69,1.75-3.32,2.86-4.89,1.1-1.57,2.33-3.02,3.68-4.37,1.36-1.36,2.74-2.58,4.15-3.69,4.18-3.31,8.73-5.96,13.63-7.93,3.01-1.23,6.16-2.11,9.45-2.67,3.28-.55,6.59-.86,9.91-.92,6.46-.12,12.72.76,18.8,2.68,6.08,1.9,11.95,4.33,17.6,7.27,5.96,3.07,11.65,6.46,17.05,10.18,5.41,3.72,10.81,7.51,16.22,11.38,4.91,3.5,9.92,6.79,15.02,9.85,5.1,3.07,10.44,5.71,16.03,7.93,10.87,4.36,22.15,6.36,33.82,5.99,5.77-.19,11.59-.91,17.46-2.17,5.86-1.26,11.5-3.1,16.91-5.53,5.41-2.43,10.43-5.47,15.07-9.13,4.64-3.65,8.62-7.97,11.94-12.94.85-1.23,1.64-2.49,2.35-3.78.7-1.29,1.4-2.58,2.08-3.87,1.53-2.71,2.7-5.38,3.49-8.02.38-1.29.63-2.59.78-3.91.16-1.33.18-2.62.05-3.92-.06-.68-.17-1.29-.32-1.84-.15-.55-.32-1.14-.51-1.75-.06-.12-.1-.28-.14-.46-.03-.19-.1-.34-.23-.46.07-.06-.17-.75-.69-2.07-.52-1.32-1.09-2.77-1.7-4.33-.62-1.57-1.2-2.99-1.75-4.28-.56-1.29-.86-1.9-.91-1.84,0-.06-.07-.21-.2-.46-.97-2.27-2.34-4.22-4.09-5.85-1.75-1.63-3.72-2.95-5.89-3.97-2.18-1.01-4.5-1.69-6.96-2.02-2.46-.34-4.86-.32-7.18.04-1.5.21-2.92.64-4.26,1.25-3.01-.29-5.69-1.13-8.01-2.56-2.92-1.81-5-4.25-6.22-7.32,3.77,0,7.4-.4,10.88-1.21,3.5-.81,6.63-1.93,9.39-3.39,2.76-1.46,5.07-3.15,6.91-5.07,1.85-1.91,3-3.99,3.46-6.21.46-1.92.26-3.77-.58-5.53-.84-1.77-2.16-3.28-3.96-4.56-1.81-1.27-4.04-2.28-6.68-3.05-2.65-.77-5.55-1.15-8.7-1.15-3.76,0-7.39.4-10.88,1.21-3.5.81-6.63,1.94-9.39,3.39-2.76,1.46-5.04,3.15-6.85,5.07-1.8,1.92-2.93,3.96-3.39,6.1-.38,2.01-.64,3.73-.75,5.18-.11,1.46-.02,2.58.29,3.35-3.62-.31-6.36-1.81-8.24-4.5-1.88-2.68-2.4-5.94-1.56-9.79.46-2,1.57-3.97,3.34-5.93,1.77-1.96,4.04-3.76,6.8-5.41,2.76-1.65,5.93-3.11,9.5-4.38,3.57-1.27,7.4-2.25,11.46-2.94,4.3-.76,8.31-1.59,12.04-2.47,3.72-.88,6.96-1.82,9.73-2.82,2.76-.99,5-2.05,6.68-3.17,1.69-1.11,2.65-2.32,2.88-3.63.23-1.08-.23-2.53-1.38-4.38h11.98l.02-.08h46.92c-.22.91-.91,1.69-2.05,2.34-1.14.64-2.64,1.25-4.49,1.82-1.86.57-4.04,1.08-6.54,1.54-2.5.45-5.23.91-8.19,1.37-3.41.6-6.55,1.2-9.44,1.76-2.88.57-5.4,1.18-7.56,1.83-2.16.64-3.89,1.36-5.17,2.16-1.29.8-2.05,1.69-2.28,2.68-.38,1.98,1.06,3.84,4.32,5.58,3.27,1.74,7.63,3.68,13.09,5.81-6.9,3.57-12.51,7.25-16.83,11.05-4.32,3.79-6.83,7.25-7.51,10.37-.68,3.34-.55,6.47.4,9.4.94,2.92,2.54,5.46,4.78,7.63,2.24,2.16,5.04,3.88,8.41,5.13,3.38,1.25,7.11,1.88,11.21,1.88,3.1,0,6.1-.5,8.98-1.48,2.89-.99,5.42-2.36,7.63-4.11-3.34-.6-6.31-1.63-8.93-3.07-2.61-1.45-4.78-3.19-6.48-5.25-1.71-2.05-2.91-4.3-3.58-6.78-.68-2.47-.76-5.03-.23-7.69.76-3.64,2.12-6.82,4.09-9.51,1.97-2.7,4.25-4.46,6.83-5.3l12.73,3.53c2.73.54,4.81,1.88,6.26,4.05,1.44,2.16,1.81,4.57,1.14,7.23-.16.91-1.05,1.99-2.68,3.25-1.63,1.25-3.78,2.57-6.42,3.93.91.83,2.54,1.48,4.89,1.94,2.35.45,5.23.72,8.64.8,2.42,0,4.79-.36,7.11-1.09,2.31-.72,4.4-1.72,6.26-3.01,1.85-1.3,3.42-2.8,4.72-4.51,1.29-1.71,2.16-3.55,2.61-5.53.31-1.6,0-3.19-.91-4.79-.91-1.6-2.37-3.1-4.38-4.5-2.01-1.41-4.45-2.66-7.34-3.77-2.88-1.09-6.06-1.96-9.55-2.56-2.8-.53-5.36-1.12-7.67-1.77-2.31-.64-4.27-1.33-5.86-2.05-1.59-.72-2.8-1.48-3.64-2.28-.84-.8-1.18-1.65-1.03-2.56.15-.76.7-1.31,1.65-1.65.95-.34,2.2-.63,3.76-.85,1.55-.23,3.39-.45,5.52-.63,2.12-.19,4.47-.51,7.05-.97,2.73-.45,5.27-.93,7.62-1.42,2.35-.49,4.4-1.03,6.14-1.59,1.75-.57,3.15-1.18,4.21-1.83,1.06-.64,1.7-1.38,1.93-2.22.3-1.59.11-3.04-.57-4.33h14.89l1.82-8.55ZM405.06,296.39h-.22c-4.25,0-7.17-1.45-8.77-4.35-1.21-2.13-1.81-4.64-1.81-7.53,0-5.26,1.64-10.7,4.93-16.3,2.41-4.2,5.53-7.53,9.35-10,4.44-2.61,9.91-4.55,16.41-5.83,6.5-1.28,12.93-1.92,19.31-1.92-10.48,30.43-23.55,45.74-39.2,45.93ZM601.76,296.39h-.22c-4.25,0-7.17-1.45-8.77-4.35-1.21-2.13-1.81-4.64-1.81-7.53,0-5.26,1.64-10.7,4.93-16.3,2.41-4.2,5.53-7.53,9.35-10,4.44-2.61,9.91-4.55,16.41-5.83,6.5-1.28,12.93-1.92,19.31-1.92-10.48,30.43-23.55,45.74-39.2,45.93ZM727.42,279.97c2.65-2.61,5.74-3.91,9.27-3.91.69,0,1.25.28,1.67.86.42.57.6,1.25.52,2.02-.62,2.61-2.46,5.01-5.53,7.2-3.07,2.18-6.8,3.63-11.17,4.32.84-4.38,2.59-7.87,5.24-10.49Z"/></svg>