<?xml version="1.0" encoding="UTF-8"?><svg id="Layer_1" xmlns="http://www.w3.org/2000/svg" viewBox="0 0 364 284"><defs><style>.cls-1,.cls-2{fill:#106153;}.cls-3{fill:#fbcc0a;fill-rule:evenodd;}.cls-2{font-family:Kurale-Regular, Kurale;font-size:20.35px;}</style></defs><path class="cls-1" d="M311.18,108.29c-3.43-9.85-22.92-14.45-37.4-12.78,10.44-8.65,16.67-22.09,18.68-40.3-49.49-6.95-74.12,15.01-62.41,44.56-9.45-40.8,38.6-46.48,57.78-39.99-1.68,32.22-28.57,43.64-50.24,42.71,10.2-9.91,19.99-17.85,29.27-23.82-16.42,8.29-28.22,17.33-35.5,27.22-.64-.29-1.78-.81-3.21-1.49-7.36-3.3-22.2-10.03-26.14-8.23-.23.12-.46.29-.7.41-.46-.99-1.27-2.03-2.43-3.19-1.74-1.8-4.35-3.94-7.82-6.37-2.67-4.4-5.16-7.36-7.48-8.92-2.38-1.62-4.58-1.85-6.61-.58-1.39-.75-2.9-1.33-4.58-1.68l-.12-.06h-.12c-.93.06-1.68.17-2.32.46-.81.41-1.27,1.04-1.39,1.91-.12.7.06,1.56.52,2.49.75,1.62,2.43,3.77,5.04,6.49,1.56,5.33,7.3,13.73,13.97,21.33,6.49,7.42,13.97,14.14,19.36,16.63,6.26,5.74,13.21,10.49,20.75,14.14,7.19,3.48,14.84,5.97,22.83,7.36l-3.42,8.17,1.91.81,3.94-9.39-.81-1.45c-8.23-1.27-16.17-3.77-23.53-7.36-7.42-3.59-14.26-8.29-20.4-13.91l-.12-.12-.17-.06c-5.1-2.32-12.34-8.92-18.78-16.17-6.55-7.53-12.23-15.76-13.62-20.8l-.06-.29-.17-.17c-2.55-2.61-4.17-4.64-4.81-6.14-.29-.52-.41-.99-.35-1.27,0-.12.12-.23.23-.35.29-.12.75-.17,1.33-.23,2.32.58,4.4,1.56,6.14,2.96,1.74,1.51,3.19,3.42,4.35,5.85l.12.17.12.12c3.53,3.3,6.14,5.97,7.88,8.11,1.68,1.91,2.55,3.25,2.61,4v.46l.41.29c1.1.81,2.03,1.51,2.84,2.09.46.29.87.58,1.16.81v.64c.12,1.51.64,2.9,1.56,4.06.87,1.16,2.09,2.03,3.53,2.49,5.68,2.26,10.03,4.11,13.04,5.51-1.74-.29-3.3-.46-4.64-.52-2.9-.17-4.98.12-6.32.99l1.16,1.74c.93-.58,2.61-.81,5.04-.7,2.55.17,5.85.75,9.91,1.74,5.62,5.39,10.66,9.21,15.07,11.47.93,2.2,1.91,4.06,2.9,5.56,1.04,1.62,2.2,2.84,3.42,3.65l1.16-1.74c-.99-.64-1.91-1.68-2.84-3.07-.64-.93-1.22-1.97-1.8-3.19,3.82,1.39,7.19,1.51,10.03.35l-.75-1.91c-2.9,1.16-6.43.75-10.66-1.27-4.4-2.14-9.45-5.91-15.18-11.47-.64-.81-2.49-1.97-5.56-3.48-2.2-1.04-5.16-2.32-8.81-3.82,2.03.06,3.48-.46,4.46-1.51.58-.41,1.04-.93,1.45-1.56,1.16-2.09-.06-5.45-2.72-7.07,5.39,1.85,12,4.87,16.11,6.72,1.62.75,2.84,1.33,3.59,1.62l.23.06h.29c4.29-.58,9.04-.23,14.37,1.04,5.27,1.22,11.13,3.36,17.39,6.37,6.95,3.71,11.71,8.06,14.31,12.92,5.45,10.37.52,13.79-.99,21.91-.41,2.09-.41,4.4.06,6.9l2.03-.41c-.35-2.2-.41-4.23-.06-6.14,1.62-8.75,7.48-10.55.81-23.18-2.78-5.27-7.82-9.91-15.13-13.85h-.06c-6.49-3.13-12.46-5.33-17.91-6.61-.44-.1-.87-.16-1.3-.24.19-.02.38-.04.57-.06,22.8,1.69,40.12,6.2,51.84,13.64,0-4.64-3.25-11.53-4.64-14.02,7.48-1.04,14.2-.12,18.49,2.03ZM198.76,99.13c-.23.41-.46.87-.64,1.33-.12-.06-.23-.17-.35-.29-.64-.41-1.45-1.04-2.49-1.8-.29-1.1-1.27-2.67-2.96-4.69-1.8-2.09-4.46-4.81-7.94-8.11-1.27-2.61-2.9-4.69-4.87-6.32-.12-.17-.29-.29-.41-.35.99-.23,2.09.06,3.3.87,2.09,1.45,4.4,4.29,6.95,8.52l.12.17.17.17c3.48,2.43,6.08,4.46,7.77,6.2,1.27,1.33,2.03,2.38,2.2,3.13-.35.35-.64.75-.87,1.16ZM212.55,104.23c-.12.52-.29,1.04-.52,1.39-.17.41-.46.7-.81.87l-.17.12-.12.12c-.52.7-1.62,1.04-3.25.93-1.74-.06-4.06-.64-6.95-1.74-.52-.75-.87-1.68-.93-2.67-.06-1.1.23-2.14.75-3.07.35-.58.81-1.1,1.39-1.51,3.25.58,5.8,1.39,7.59,2.43,1.62.87,2.61,1.91,3.01,3.13ZM285.86,104.4c2.67.81,5.27,6.03,6.14,10.32-12.54-6.14-26.65-9.04-42.3-8.67,8.12-1.43,15.09-4.16,20.94-8.17,12.64-.86,23.78.83,29.02,4.97-3.48-.41-8.29-.87-13.79,1.56Z"/><path class="cls-3" d="M209.38,93.72c3.54,1.08,6.13,2,9.26,3.21,2.84,1.16,5.62,2.38,8.4,3.65-3.36-8.63-4.29-18.2-.46-26.89,4.29-9.79,13.33-15.88,23.18-19.18,11.53-3.82,24.63-4.23,36.92-3.07-4.78-21.89-25.2-38.01-48.9-36.06-23.04,1.89-41.35,21.08-42.22,44.19-.5,13.22,4.57,25.27,13.01,33.95l.83.21ZM275.6,43.84l1.68,3.3c-1.45,0-2.84-.06-4.23-.06-1.51,0-3.01.06-4.46.12-.12-1.1-.35-2.14-.81-3.25-.41-1.04-.99-2.14-1.74-3.19-.75-1.04-1.62-2.09-2.72-3.07-3.48-3.54-7.71-6.26-12.4-7.94,7.36,1.33,13.68,4.93,19.07,10.84-4.81-7.07-12-12.29-20.28-14.66,11.59,2.78,20.23,8.75,25.9,17.91Z"/><path class="cls-1" d="M70.72,219.23h-.09c-.71.15-1.43.23-2.17.23-.52,0-1.06-.05-1.62-.14-4.25-1.02-8.3-3.72-12.15-8.11-3.85-4.39-7.3-9.41-10.37-15.08-3.06-5.67-5.51-10.87-7.34-15.61-1.83-4.74-2.82-7.97-2.98-9.7,1.39-1.91,3.3-3.47,5.75-4.69,2.45-1.22,5.33-1.86,8.66-1.92.65-.06,1.51-.6,2.59-1.62,1.08-1.02,2.13-2.2,3.16-3.56,1.03-1.35,1.7-2.39,2.01-3.09.31-.71.46-1.2.46-1.48,0-.37-.2-.57-.6-.6-5.05.18-9.65,1.75-13.81,4.71-4.16,2.96-7.91,6.64-11.25,11.06-3.34,4.42-6.17,8.89-8.47,13.42.18-.8.73-2.92,1.64-6.35.91-3.43,1.83-6.93,2.77-10.48.94-3.56,1.58-5.89,1.92-7,9.05-3.05,17.42-7.4,25.1-13.07,7.68-5.67,14.51-12.22,20.48-19.67,1.85-2.28,3.76-4.86,5.73-7.76,1.97-2.89,3.81-5.94,5.52-9.14,1.71-3.2,3.1-6.41,4.18-9.63,1.08-3.22,1.62-6.24,1.62-9.08,0-11.82-5.79-17.73-17.37-17.73-5.14,0-10.53,2.76-16.16,8.27-4.59,4.53-8.96,10.25-13.12,17.18-4.53,7.51-8.01,14.86-10.44,22.03-1.66,4.8-3.96,12.18-6.88,22.12l-2.36,7.67c-3.88-1.08-6.23-2.8-7.07-5.17-.83-2.37-1.25-4.26-1.25-5.68,0-2.25.52-4.4,1.57-6.47.65-1.11.97-1.86.97-2.26v-.37c0-.28-.17-.42-.51-.42-.59.03-1.46.52-2.63,1.48-1.17.95-2.38,2.26-3.63,3.9-1.25,1.65-2.32,3.53-3.23,5.63-.91,2.11-1.36,4.32-1.36,6.63,0,4.34,1.09,7.64,3.26,9.91,2.17,2.26,5.06,3.39,8.66,3.39.68,0,1.39-.03,2.12-.09-.74,2.22-2.34,7.97-4.8,17.27-3.36,12.56-5.03,20.43-5.03,23.6,0,1.57.37,2.36,1.11,2.36s1.88-.65,3.33-1.94c2.34-2.22,4.16-4.55,5.47-7,1.31-2.45,2.46-4.93,3.44-7.46l.92-2.36c1.79,5.36,4.19,11.05,7.2,17.09,3.79,7.6,7.87,13.79,12.24,18.57,5.27,5.85,10.53,8.77,15.79,8.77,1.11,0,2.32-.56,3.63-1.69,1.31-1.12,2.48-2.39,3.51-3.79,1.03-1.4,1.69-2.46,1.96-3.19.28-.72.42-1.19.42-1.41,0-.34-.17-.51-.51-.51ZM39.92,122.02c1.88-6.1,3.45-10.71,4.71-13.83,1.26-3.13,2.72-6.21,4.39-9.26,4.25-7.88,8.31-12.59,12.19-14.13,1.85-.74,3.77-1.11,5.77-1.11,3.94,0,7.05.76,9.33,2.29,2.28,1.52,3.9,3.6,4.87,6.23.97,2.63,1.46,5.61,1.46,8.94,0,3.94-1.39,8.45-4.18,13.53-2.79,5.08-6.57,10.08-11.34,15.01-4.77,4.93-10.22,9.25-16.35,12.98-6.13,3.73-12.58,6.28-19.35,7.67,4.16-14.01,6.99-23.45,8.5-28.31Z"/><path class="cls-1" d="M355.99,153.67h-113.67l-1.18,5.5h36.71c.63,0,1.1.27,1.39.81.3.54.39,1.2.3,1.98-.15.73-.66,1.46-1.54,2.17-.88.71-2.02,1.34-3.42,1.91-1.39.56-3,1.05-4.81,1.47-1.81.42-3.72.7-5.72.84-3.23.29-6.32.84-9.25,1.66-2.94.81-5.53,1.81-7.79,3.01-2.25,1.2-4.11,2.53-5.58,4-1.47,1.47-2.35,2.99-2.64,4.55-.02.11-.02.21-.04.32-.01.02-.03.03-.05.05-1.12,1.4-2.19,2.9-3.21,4.5-.95,1.42-1.91,2.76-2.86,4.02-2.25,2.89-4.62,4.34-7.11,4.34-.77,0-1.34-.36-1.71-1.09-.37-.72-.59-1.55-.67-2.49-.08-.94-.12-1.81-.12-2.61,0-1.05.08-2.26.23-3.65.4-2.74,1.36-7.07,2.89-12.98,1.52-5.91,2.96-10.93,4.32-15.06.37-.99.55-1.71.55-2.17,0-.43-.17-.65-.51-.65h-.05c-5.88-.83-11.78-1.25-17.69-1.25-8.22,0-14.64.88-19.26,2.63-.74.34-1.69,1.11-2.86,2.31-1.17,1.2-2.24,2.49-3.21,3.88-.97,1.39-1.45,2.43-1.45,3.14,0,.43.17.65.51.65.31,0,.94-.18,1.89-.55,2.74-.92,6.56-1.46,11.45-1.62-5.14,4.19-9.58,9.47-13.3,15.84-.27.47-.52.93-.77,1.39-.28.27-.55.55-.8.85-.92,1.09-1.91,2.41-2.96,3.95-.89,1.26-1.96,2.71-3.19,4.34l-.05.05c-1.08,1.29-1.97,2.24-2.68,2.84-.71.6-1.29.96-1.75,1.09-.46.12-.91.18-1.34.18-1.48,0-2.55-.52-3.21-1.57-.66-1.05-1.02-2.1-1.09-3.16-.06-1.06-.09-1.79-.09-2.19,0-2.77.55-6.51,1.66-11.22.52-2.22,1.05-4.31,1.57-6.28,1.23-4.62,1.85-7.87,1.85-9.74,0-1.08-.14-2.08-.42-3-.49-1.72-1.85-2.65-4.06-2.77-2.59.12-5.38,1.65-8.38,4.6-3,2.94-5.81,6.23-8.43,9.88-2.62,3.65-4.62,6.63-6,8.94.71-2.49,1.49-5.59,2.36-9.28.71-3.05,1.06-5.82,1.06-8.31,0-1.02-.05-1.96-.16-2.84-.11-.88-.32-1.59-.62-2.15-.31-.55-.8-.83-1.48-.83-1.85,0-3.83.74-5.96,2.22-2.12,1.48-4.26,3.36-6.4,5.66-2.14,2.29-4.19,4.73-6.17,7.3-1.97,2.57-3.73,5-5.29,7.3-1.55,2.29-2.78,4.16-3.67,5.61.46-1.85,1.82-6.94,4.06-15.29,2.09-7.88,3.15-11.88,3.16-12.01s.02-.22.02-.28c0-.34-.2-.51-.6-.51-.62.09-1.51.69-2.68,1.78-1.17,1.09-2.29,2.34-3.35,3.74-1.06,1.4-1.75,2.59-2.06,3.58l-4.66,17.5c-.09.34-.17.66-.26.99-.14.16-.27.3-.41.47-1.12,1.4-2.19,2.9-3.21,4.5-.95,1.42-1.91,2.76-2.86,4.02-2.25,2.89-4.62,4.34-7.11,4.34-.77,0-1.34-.36-1.71-1.09-.37-.72-.59-1.55-.67-2.49-.08-.94-.12-1.81-.12-2.61,0-1.05.08-2.26.23-3.65.4-2.74,1.36-7.07,2.89-12.98,1.52-5.91,2.96-10.93,4.32-15.06.37-.99.55-1.71.55-2.17,0-.43-.17-.65-.51-.65h-.05c-5.88-.83-11.78-1.25-17.69-1.25-8.22,0-14.64.88-19.26,2.63-.74.34-1.69,1.11-2.86,2.31-1.17,1.2-2.24,2.49-3.21,3.88-.97,1.39-1.45,2.43-1.45,3.14,0,.43.17.65.51.65.31,0,.94-.18,1.89-.55,2.74-.92,6.56-1.46,11.45-1.62-5.14,4.19-9.58,9.47-13.3,15.84-3.6,6.22-5.4,11.62-5.4,16.21,0,2.8.85,5,2.54,6.6,1.51,1.48,3.89,2.22,7.16,2.22,7.76,0,16.23-6.6,25.4-19.81-1.42,6.07-2.12,10.56-2.12,13.49,0,2.65.42,4.59,1.25,5.82.65.99,1.66,1.48,3.05,1.48,2.03,0,4.2-.82,6.51-2.45,2.31-1.63,4.56-3.66,6.77-6.07,1.81-1.98,3.47-4,5.01-6.05-2.31,8.71-3.46,13.14-3.46,13.28,0,.31.12.46.37.46h.18c.86-.22,1.93-.97,3.21-2.26,1.28-1.29,2.29-2.48,3.03-3.56,1.79-2.68,3.93-6.2,6.42-10.58,3.82-6.71,7.07-11.99,9.74-15.84,3.66-5.23,6.5-7.85,8.5-7.85,1.08,0,1.63.53,1.66,1.59.03,1.06.05,1.7.05,1.92,0,5.57-2.31,15.83-6.93,30.76l-.09.37c-.95,2.74-1.43,4.34-1.43,4.8,0,.31.15.46.46.46.49,0,1.25-.42,2.26-1.25,2.46-2,4.31-4.28,5.54-6.84,6.8-14.04,12.38-23.71,16.72-29,1.54-1.88,2.8-2.82,3.79-2.82,1.39,0,2.32.42,2.79,1.27.48.85.72,1.92.72,3.21,0,1.45-.26,3.37-.78,5.77-.46,1.97-.99,4.05-1.57,6.23-1.88,6.65-2.82,11.56-2.82,14.73,0,2.99.68,5.36,2.03,7.11.83,1.11,1.99,1.66,3.46,1.66,1.69,0,3.7-.87,6.03-2.61,2.32-1.74,4.66-3.88,7-6.42,1.19-1.3,2.33-2.6,3.4-3.9-.28,1.41-.44,2.77-.44,4.06,0,2.8.85,5,2.54,6.6,1.51,1.48,3.89,2.22,7.16,2.22,7.76,0,16.23-6.6,25.4-19.81-1.42,6.07-2.12,10.56-2.12,13.49,0,2.65.42,4.59,1.25,5.82.65.99,1.66,1.48,3.05,1.48,2.03,0,4.2-.82,6.51-2.45,2.31-1.63,4.56-3.66,6.77-6.07,2.2-2.42,4.2-4.88,6-7.39.66-.92,1.26-1.78,1.82-2.61.06.11.1.23.16.34.98,1.69,2.5,3.16,4.55,4.4,2.06,1.25,4.56,2.23,7.53,2.94,2.96.71,6.2,1.06,9.73,1.06.25,1.47.8,2.81,1.65,4.04.85,1.22,1.95,2.28,3.27,3.15,1.32.88,2.87,1.57,4.66,2.06,1.79.49,3.71.73,5.77.73.48,0,1.02-.06,1.6-.16-.3.72-.51,1.45-.62,2.19-.15,1.06-.06,2.13.3,3.23-.08-.11-.05,0,.09.38.14.37.33.89.59,1.56.25.66.55,1.39.88,2.17.33.78.64,1.51.91,2.18.27.66.5,1.2.67,1.62.18.41.26.56.26.44,0,.04.02.08.06.12.16.39.37.78.65,1.18.27.31.57.6.91.88.33.27.68.51,1.03.7.78.43,1.61.73,2.47.88.86.15,1.72.2,2.58.11.71-.04,1.38-.19,2.03-.44.65-.25,1.2-.6,1.67-1.03.47-.43.83-.94,1.09-1.52.25-.59.32-1.28.2-2.06-.08-.2-.16-.41-.26-.65-.1-.23-.19-.45-.26-.65-.2-.51-.39-1.02-.59-1.52-.2-.51-.39-1.02-.59-1.53-.2-.51-.4-1.01-.62-1.5-.22-.49-.44-1.01-.67-1.56-.08-.16-.18-.35-.3-.59-.12-.23-.19-.45-.23-.65.12.78.06,1.47-.18,2.06-.23.59-.58,1.09-1.06,1.5-.47.41-1.02.74-1.64.99-.63.26-1.3.42-1.99.5-.63.08-1.28.08-1.94,0-.67-.08-1.31-.22-1.94-.41l.53-1.23c.66-1.18,1.57-2.1,2.73-2.76,1.16-.66,2.38-1.09,3.67-1.29,2.19-.35,4.43-.22,6.7.41,2.27.63,4.23,1.68,5.88,3.17-.08,1.01-.28,2.03-.59,3.05-.31,1.02-.68,2-1.11,2.94-.43.86-.87,1.71-1.32,2.55-.45.84-.91,1.68-1.38,2.5-.94,1.56-1.98,3.07-3.11,4.52-2.31,2.86-4.99,5.3-8.02,7.31-3.04,2.02-6.26,3.69-9.67,5.02-3.68,1.41-7.46,2.45-11.34,3.12-3.87.66-7.77.96-11.68.88-3.68-.08-7.28-.57-10.78-1.47-3.5-.9-6.92-2.12-10.25-3.64-3.56-1.64-6.98-3.52-10.25-5.64-3.27-2.11-6.47-4.33-9.6-6.64-1.73-1.26-3.47-2.48-5.22-3.67-1.77-1.2-3.55-2.36-5.35-3.49-1.76-1.14-3.55-2.2-5.37-3.2-1.82-1-3.67-1.95-5.55-2.85-3.72-1.73-7.56-3.01-11.52-3.85-3.95-.84-7.99-1.03-12.1-.55-2,.2-3.94.55-5.81,1.09-1.88.53-3.7,1.24-5.47,2.14-3.09,1.53-5.85,3.48-8.28,5.88-.75.7-1.45,1.47-2.11,2.29-.67.82-1.26,1.69-1.8,2.61-.53.92-.94,1.88-1.23,2.88-.29,1-.44,2.03-.44,3.08,0,.51.05,1,.15,1.47.1.47.22.92.38,1.35.08.16.13.29.15.41.02.12.07.25.14.41-.04,0,.1.41.41,1.23.32.82.67,1.71,1.06,2.67.39.96.76,1.86,1.11,2.7.35.84.57,1.29.65,1.32.04.16.14.39.3.7.55,1.14,1.26,2.16,2.14,3.05.88.9,1.84,1.73,2.85,2.47-.08-.08-.17-.3-.29-.67-.12-.37-.18-.58-.18-.62-.2-.55-.4-1.07-.62-1.56-.22-.49-.42-.99-.62-1.5-.2-.51-.4-1.01-.62-1.5-.22-.49-.42-1.01-.62-1.56-.04-.08-.11-.28-.23-.62-.12-.33-.22-.54-.29-.62-.43-.32-.83-.62-1.2-.91-.37-.3-.74-.6-1.09-.91.11-1.18.43-2.3.94-3.37.52-1.08,1.12-2.12,1.83-3.12.7-1,1.49-1.93,2.35-2.79.87-.87,1.74-1.64,2.64-2.35,2.67-2.11,5.56-3.8,8.69-5.05,1.92-.78,3.93-1.35,6.02-1.7,2.09-.35,4.2-.55,6.31-.59,4.12-.08,8.11.49,11.98,1.71,3.88,1.21,7.62,2.76,11.22,4.64,3.8,1.96,7.42,4.12,10.87,6.49,3.45,2.37,6.89,4.79,10.34,7.26,3.13,2.23,6.32,4.33,9.58,6.28,3.25,1.96,6.65,3.64,10.22,5.05,6.93,2.78,14.12,4.05,21.56,3.82,3.68-.12,7.39-.58,11.13-1.38,3.74-.8,7.33-1.98,10.78-3.52,3.45-1.55,6.65-3.48,9.6-5.82,2.96-2.33,5.49-5.08,7.61-8.25.54-.78,1.05-1.59,1.5-2.41.45-.82.89-1.64,1.32-2.47.98-1.73,1.72-3.43,2.23-5.11.24-.82.4-1.65.5-2.5.11-.85.11-1.67.03-2.5-.04-.43-.11-.82-.21-1.17-.1-.35-.21-.73-.32-1.12-.04-.08-.07-.18-.09-.29-.02-.12-.07-.22-.15-.3.04-.04-.11-.48-.44-1.32-.33-.84-.69-1.76-1.09-2.76-.39-1-.76-1.91-1.12-2.73-.35-.82-.55-1.21-.58-1.18,0-.04-.04-.13-.12-.29-.62-1.45-1.49-2.69-2.61-3.73-1.12-1.04-2.37-1.88-3.76-2.53-1.39-.65-2.87-1.08-4.44-1.29-1.57-.22-3.1-.21-4.58.03-.96.14-1.86.41-2.72.8-1.92-.19-3.63-.72-5.11-1.63-1.86-1.15-3.18-2.71-3.97-4.67,2.4,0,4.71-.26,6.94-.77,2.23-.51,4.22-1.23,5.99-2.16,1.76-.93,3.23-2.01,4.4-3.23,1.18-1.22,1.91-2.55,2.2-3.96.29-1.22.17-2.4-.37-3.53-.54-1.13-1.38-2.09-2.53-2.9-1.15-.81-2.57-1.45-4.26-1.94-1.69-.49-3.54-.73-5.55-.73-2.4,0-4.71.26-6.94.77-2.23.51-4.22,1.24-5.99,2.16-1.76.93-3.21,2.01-4.37,3.23-1.15,1.22-1.87,2.52-2.16,3.89-.24,1.28-.41,2.38-.48,3.3-.07.93-.01,1.64.19,2.13-2.31-.2-4.05-1.15-5.25-2.87-1.2-1.71-1.53-3.79-.99-6.24.29-1.27,1-2.53,2.13-3.78,1.13-1.25,2.58-2.4,4.33-3.45,1.76-1.05,3.78-1.98,6.06-2.79,2.28-.81,4.71-1.43,7.31-1.88,2.74-.48,5.3-1.02,7.67-1.58,2.37-.56,4.44-1.16,6.2-1.8,1.76-.63,3.18-1.31,4.26-2.02,1.08-.71,1.69-1.48,1.83-2.31.15-.69-.14-1.61-.88-2.79h7.64v-.05h29.92c-.14.58-.58,1.08-1.3,1.49-.73.41-1.68.8-2.86,1.16-1.19.37-2.58.69-4.17.98-1.59.29-3.33.58-5.22.87-2.17.38-4.18.76-6.02,1.12-1.83.36-3.44.75-4.82,1.16-1.37.41-2.48.87-3.3,1.38-.82.51-1.3,1.08-1.45,1.71-.24,1.26.68,2.45,2.75,3.56,2.08,1.11,4.86,2.35,8.34,3.71-4.4,2.28-7.98,4.62-10.73,7.05-2.75,2.42-4.35,4.62-4.78,6.61-.44,2.13-.35,4.13.25,5.99.6,1.86,1.62,3.48,3.04,4.87,1.43,1.38,3.21,2.47,5.36,3.27,2.15.8,4.53,1.2,7.14,1.2,1.98,0,3.89-.32,5.72-.95,1.84-.63,3.46-1.5,4.86-2.62-2.13-.38-4.02-1.04-5.69-1.96-1.66-.92-3.04-2.03-4.13-3.35-1.09-1.31-1.85-2.74-2.28-4.32-.44-1.57-.48-3.2-.15-4.9.48-2.32,1.35-4.34,2.61-6.07,1.26-1.72,2.71-2.84,4.35-3.38l8.12,2.25c1.74.34,3.07,1.2,3.99,2.58.91,1.38,1.16,2.91.73,4.61-.1.58-.67,1.27-1.71,2.07-1.04.8-2.41,1.64-4.09,2.51.58.53,1.62.95,3.12,1.24,1.5.29,3.33.46,5.51.51,1.55,0,3.06-.23,4.53-.69,1.47-.46,2.8-1.1,3.99-1.92,1.18-.83,2.18-1.79,3.01-2.87.82-1.09,1.37-2.26,1.66-3.52.19-1.02,0-2.03-.58-3.05-.58-1.02-1.51-1.97-2.79-2.87-1.28-.9-2.84-1.7-4.68-2.4-1.83-.7-3.86-1.25-6.09-1.63-1.79-.34-3.42-.72-4.89-1.13-1.47-.41-2.72-.85-3.73-1.31-1.01-.46-1.79-.95-2.32-1.45-.54-.51-.75-1.05-.66-1.63.09-.48.45-.83,1.05-1.05.61-.22,1.4-.4,2.4-.54.99-.15,2.16-.28,3.52-.4,1.35-.12,2.85-.33,4.49-.62,1.74-.29,3.36-.59,4.86-.9,1.5-.31,2.8-.66,3.91-1.02,1.12-.37,2.01-.75,2.68-1.16.68-.41,1.09-.88,1.23-1.41.19-1.02.07-1.94-.36-2.76h9.49l1.16-5.45ZM71.6,193.65h-.14c-2.71,0-4.57-.92-5.59-2.77-.77-1.35-1.15-2.96-1.15-4.8,0-3.36,1.05-6.82,3.14-10.39,1.54-2.68,3.53-4.8,5.96-6.37,2.83-1.66,6.32-2.9,10.46-3.72,4.14-.82,8.24-1.22,12.31-1.22-6.68,19.4-15.01,29.16-24.99,29.28ZM196.99,193.65h-.14c-2.71,0-4.57-.92-5.59-2.77-.77-1.35-1.15-2.96-1.15-4.8,0-3.36,1.05-6.82,3.14-10.39,1.54-2.68,3.53-4.8,5.96-6.37,2.83-1.66,6.32-2.9,10.46-3.72,4.14-.82,8.24-1.22,12.31-1.22-6.68,19.4-15.01,29.16-24.99,29.28ZM277.09,183.18c1.69-1.66,3.66-2.49,5.91-2.49.44,0,.8.18,1.06.55.27.36.38.79.33,1.28-.39,1.66-1.57,3.19-3.53,4.59-1.96,1.39-4.33,2.31-7.12,2.75.54-2.79,1.65-5.02,3.34-6.69Z"/><path class="cls-1" d="M70.72,219.23h-.09c-.71.15-1.43.23-2.17.23-.52,0-1.06-.05-1.62-.14-4.25-1.02-8.3-3.72-12.15-8.11-3.85-4.39-7.3-9.41-10.37-15.08-3.06-5.67-5.51-10.87-7.34-15.61-1.83-4.74-2.82-7.97-2.98-9.7,1.39-1.91,3.3-3.47,5.75-4.69,2.45-1.22,5.33-1.86,8.66-1.92.65-.06,1.51-.6,2.59-1.62,1.08-1.02,2.13-2.2,3.16-3.56,1.03-1.35,1.7-2.39,2.01-3.09.31-.71.46-1.2.46-1.48,0-.37-.2-.57-.6-.6-5.05.18-9.65,1.75-13.81,4.71-4.16,2.96-7.91,6.64-11.25,11.06-3.34,4.42-6.17,8.89-8.47,13.42.18-.8.73-2.92,1.64-6.35.91-3.43,1.83-6.93,2.77-10.48.94-3.56,1.58-5.89,1.92-7,9.05-3.05,17.42-7.4,25.1-13.07,7.68-5.67,14.51-12.22,20.48-19.67,1.85-2.28,3.76-4.86,5.73-7.76,1.97-2.89,3.81-5.94,5.52-9.14,1.71-3.2,3.1-6.41,4.18-9.63,1.08-3.22,1.62-6.24,1.62-9.08,0-11.82-5.79-17.73-17.37-17.73-5.14,0-10.53,2.76-16.16,8.27-4.59,4.53-8.96,10.25-13.12,17.18-4.53,7.51-8.01,14.86-10.44,22.03-1.66,4.8-3.96,12.18-6.88,22.12l-2.36,7.67c-3.88-1.08-6.23-2.8-7.07-5.17-.83-2.37-1.25-4.26-1.25-5.68,0-2.25.52-4.4,1.57-6.47.65-1.11.97-1.86.97-2.26v-.37c0-.28-.17-.42-.51-.42-.59.03-1.46.52-2.63,1.48-1.17.95-2.38,2.26-3.63,3.9-1.25,1.65-2.32,3.53-3.23,5.63-.91,2.11-1.36,4.32-1.36,6.63,0,4.34,1.09,7.64,3.26,9.91,2.17,2.26,5.06,3.39,8.66,3.39.68,0,1.39-.03,2.12-.09-.74,2.22-2.34,7.97-4.8,17.27-3.36,12.56-5.03,20.43-5.03,23.6,0,1.57.37,2.36,1.11,2.36s1.88-.65,3.33-1.94c2.34-2.22,4.16-4.55,5.47-7,1.31-2.45,2.46-4.93,3.44-7.46l.92-2.36c1.79,5.36,4.19,11.05,7.2,17.09,3.79,7.6,7.87,13.79,12.24,18.57,5.27,5.85,10.53,8.77,15.79,8.77,1.11,0,2.32-.56,3.63-1.69,1.31-1.12,2.48-2.39,3.51-3.79,1.03-1.4,1.69-2.46,1.96-3.19.28-.72.42-1.19.42-1.41,0-.34-.17-.51-.51-.51ZM39.92,122.02c1.88-6.1,3.45-10.71,4.71-13.83,1.26-3.13,2.72-6.21,4.39-9.26,4.25-7.88,8.31-12.59,12.19-14.13,1.85-.74,3.77-1.11,5.77-1.11,3.94,0,7.05.76,9.33,2.29,2.28,1.52,3.9,3.6,4.87,6.23.97,2.63,1.46,5.61,1.46,8.94,0,3.94-1.39,8.45-4.18,13.53-2.79,5.08-6.57,10.08-11.34,15.01-4.77,4.93-10.22,9.25-16.35,12.98-6.13,3.73-12.58,6.28-19.35,7.67,4.16-14.01,6.99-23.45,8.5-28.31Z"/><path class="cls-1" d="M355.99,153.67h-113.67l-1.18,5.5h36.71c.63,0,1.1.27,1.39.81.3.54.39,1.2.3,1.98-.15.73-.66,1.46-1.54,2.17-.88.71-2.02,1.34-3.42,1.91-1.39.56-3,1.05-4.81,1.47-1.81.42-3.72.7-5.72.84-3.23.29-6.32.84-9.25,1.66-2.94.81-5.53,1.81-7.79,3.01-2.25,1.2-4.11,2.53-5.58,4-1.47,1.47-2.35,2.99-2.64,4.55-.02.11-.02.21-.04.32-.01.02-.03.03-.05.05-1.12,1.4-2.19,2.9-3.21,4.5-.95,1.42-1.91,2.76-2.86,4.02-2.25,2.89-4.62,4.34-7.11,4.34-.77,0-1.34-.36-1.71-1.09-.37-.72-.59-1.55-.67-2.49-.08-.94-.12-1.81-.12-2.61,0-1.05.08-2.26.23-3.65.4-2.74,1.36-7.07,2.89-12.98,1.52-5.91,2.96-10.93,4.32-15.06.37-.99.55-1.71.55-2.17,0-.43-.17-.65-.51-.65h-.05c-5.88-.83-11.78-1.25-17.69-1.25-8.22,0-14.64.88-19.26,2.63-.74.34-1.69,1.11-2.86,2.31-1.17,1.2-2.24,2.49-3.21,3.88-.97,1.39-1.45,2.43-1.45,3.14,0,.43.17.65.51.65.31,0,.94-.18,1.89-.55,2.74-.92,6.56-1.46,11.45-1.62-5.14,4.19-9.58,9.47-13.3,15.84-.27.47-.52.93-.77,1.39-.28.27-.55.55-.8.85-.92,1.09-1.91,2.41-2.96,3.95-.89,1.26-1.96,2.71-3.19,4.34l-.05.05c-1.08,1.29-1.97,2.24-2.68,2.84-.71.6-1.29.96-1.75,1.09-.46.12-.91.18-1.34.18-1.48,0-2.55-.52-3.21-1.57-.66-1.05-1.02-2.1-1.09-3.16-.06-1.06-.09-1.79-.09-2.19,0-2.77.55-6.51,1.66-11.22.52-2.22,1.05-4.31,1.57-6.28,1.23-4.62,1.85-7.87,1.85-9.74,0-1.08-.14-2.08-.42-3-.49-1.72-1.85-2.65-4.06-2.77-2.59.12-5.38,1.65-8.38,4.6-3,2.94-5.81,6.23-8.43,9.88-2.62,3.65-4.62,6.63-6,8.94.71-2.49,1.49-5.59,2.36-9.28.71-3.05,1.06-5.82,1.06-8.31,0-1.02-.05-1.96-.16-2.84-.11-.88-.32-1.59-.62-2.15-.31-.55-.8-.83-1.48-.83-1.85,0-3.83.74-5.96,2.22-2.12,1.48-4.26,3.36-6.4,5.66-2.14,2.29-4.19,4.73-6.17,7.3-1.97,2.57-3.73,5-5.29,7.3-1.55,2.29-2.78,4.16-3.67,5.61.46-1.85,1.82-6.94,4.06-15.29,2.09-7.88,3.15-11.88,3.16-12.01s.02-.22.02-.28c0-.34-.2-.51-.6-.51-.62.09-1.51.69-2.68,1.78-1.17,1.09-2.29,2.34-3.35,3.74-1.06,1.4-1.75,2.59-2.06,3.58l-4.66,17.5c-.09.34-.17.66-.26.99-.14.16-.27.3-.41.47-1.12,1.4-2.19,2.9-3.21,4.5-.95,1.42-1.91,2.76-2.86,4.02-2.25,2.89-4.62,4.34-7.11,4.34-.77,0-1.34-.36-1.71-1.09-.37-.72-.59-1.55-.67-2.49-.08-.94-.12-1.81-.12-2.61,0-1.05.08-2.26.23-3.65.4-2.74,1.36-7.07,2.89-12.98,1.52-5.91,2.96-10.93,4.32-15.06.37-.99.55-1.71.55-2.17,0-.43-.17-.65-.51-.65h-.05c-5.88-.83-11.78-1.25-17.69-1.25-8.22,0-14.64.88-19.26,2.63-.74.34-1.69,1.11-2.86,2.31-1.17,1.2-2.24,2.49-3.21,3.88-.97,1.39-1.45,2.43-1.45,3.14,0,.43.17.65.51.65.31,0,.94-.18,1.89-.55,2.74-.92,6.56-1.46,11.45-1.62-5.14,4.19-9.58,9.47-13.3,15.84-3.6,6.22-5.4,11.62-5.4,16.21,0,2.8.85,5,2.54,6.6,1.51,1.48,3.89,2.22,7.16,2.22,7.76,0,16.23-6.6,25.4-19.81-1.42,6.07-2.12,10.56-2.12,13.49,0,2.65.42,4.59,1.25,5.82.65.99,1.66,1.48,3.05,1.48,2.03,0,4.2-.82,6.51-2.45,2.31-1.63,4.56-3.66,6.77-6.07,1.81-1.98,3.47-4,5.01-6.05-2.31,8.71-3.46,13.14-3.46,13.28,0,.31.12.46.37.46h.18c.86-.22,1.93-.97,3.21-2.26,1.28-1.29,2.29-2.48,3.03-3.56,1.79-2.68,3.93-6.2,6.42-10.58,3.82-6.71,7.07-11.99,9.74-15.84,3.66-5.23,6.5-7.85,8.5-7.85,1.08,0,1.63.53,1.66,1.59.03,1.06.05,1.7.05,1.92,0,5.57-2.31,15.83-6.93,30.76l-.09.37c-.95,2.74-1.43,4.34-1.43,4.8,0,.31.15.46.46.46.49,0,1.25-.42,2.26-1.25,2.46-2,4.31-4.28,5.54-6.84,6.8-14.04,12.38-23.71,16.72-29,1.54-1.88,2.8-2.82,3.79-2.82,1.39,0,2.32.42,2.79,1.27.48.85.72,1.92.72,3.21,0,1.45-.26,3.37-.78,5.77-.46,1.97-.99,4.05-1.57,6.23-1.88,6.65-2.82,11.56-2.82,14.73,0,2.99.68,5.36,2.03,7.11.83,1.11,1.99,1.66,3.46,1.66,1.69,0,3.7-.87,6.03-2.61,2.32-1.74,4.66-3.88,7-6.42,1.19-1.3,2.33-2.6,3.4-3.9-.28,1.41-.44,2.77-.44,4.06,0,2.8.85,5,2.54,6.6,1.51,1.48,3.89,2.22,7.16,2.22,7.76,0,16.23-6.6,25.4-19.81-1.42,6.07-2.12,10.56-2.12,13.49,0,2.65.42,4.59,1.25,5.82.65.99,1.66,1.48,3.05,1.48,2.03,0,4.2-.82,6.51-2.45,2.31-1.63,4.56-3.66,6.77-6.07,2.2-2.42,4.2-4.88,6-7.39.66-.92,1.26-1.78,1.82-2.61.06.11.1.23.16.34.98,1.69,2.5,3.16,4.55,4.4,2.06,1.25,4.56,2.23,7.53,2.94,2.96.71,6.2,1.06,9.73,1.06.25,1.47.8,2.81,1.65,4.04.85,1.22,1.95,2.28,3.27,3.15,1.32.88,2.87,1.57,4.66,2.06,1.79.49,3.71.73,5.77.73.48,0,1.02-.06,1.6-.16-.3.72-.51,1.45-.62,2.19-.15,1.06-.06,2.13.3,3.23-.08-.11-.05,0,.09.38.14.37.33.89.59,1.56.25.66.55,1.39.88,2.17.33.78.64,1.51.91,2.18.27.66.5,1.2.67,1.62.18.41.26.56.26.44,0,.04.02.08.06.12.16.39.37.78.65,1.18.27.31.57.6.91.88.33.27.68.51,1.03.7.78.43,1.61.73,2.47.88.86.15,1.72.2,2.58.11.71-.04,1.38-.19,2.03-.44.65-.25,1.2-.6,1.67-1.03.47-.43.83-.94,1.09-1.52.25-.59.32-1.28.2-2.06-.08-.2-.16-.41-.26-.65-.1-.23-.19-.45-.26-.65-.2-.51-.39-1.02-.59-1.52-.2-.51-.39-1.02-.59-1.53-.2-.51-.4-1.01-.62-1.5-.22-.49-.44-1.01-.67-1.56-.08-.16-.18-.35-.3-.59-.12-.23-.19-.45-.23-.65.12.78.06,1.47-.18,2.06-.23.59-.58,1.09-1.06,1.5-.47.41-1.02.74-1.64.99-.63.26-1.3.42-1.99.5-.63.08-1.28.08-1.94,0-.67-.08-1.31-.22-1.94-.41l.53-1.23c.66-1.18,1.57-2.1,2.73-2.76,1.16-.66,2.38-1.09,3.67-1.29,2.19-.35,4.43-.22,6.7.41,2.27.63,4.23,1.68,5.88,3.17-.08,1.01-.28,2.03-.59,3.05-.31,1.02-.68,2-1.11,2.94-.43.86-.87,1.71-1.32,2.55-.45.84-.91,1.68-1.38,2.5-.94,1.56-1.98,3.07-3.11,4.52-2.31,2.86-4.99,5.3-8.02,7.31-3.04,2.02-6.26,3.69-9.67,5.02-3.68,1.41-7.46,2.45-11.34,3.12-3.87.66-7.77.96-11.68.88-3.68-.08-7.28-.57-10.78-1.47-3.5-.9-6.92-2.12-10.25-3.64-3.56-1.64-6.98-3.52-10.25-5.64-3.27-2.11-6.47-4.33-9.6-6.64-1.73-1.26-3.47-2.48-5.22-3.67-1.77-1.2-3.55-2.36-5.35-3.49-1.76-1.14-3.55-2.2-5.37-3.2-1.82-1-3.67-1.95-5.55-2.85-3.72-1.73-7.56-3.01-11.52-3.85-3.95-.84-7.99-1.03-12.1-.55-2,.2-3.94.55-5.81,1.09-1.88.53-3.7,1.24-5.47,2.14-3.09,1.53-5.85,3.48-8.28,5.88-.75.7-1.45,1.47-2.11,2.29-.67.82-1.26,1.69-1.8,2.61-.53.92-.94,1.88-1.23,2.88-.29,1-.44,2.03-.44,3.08,0,.51.05,1,.15,1.47.1.47.22.92.38,1.35.08.16.13.29.15.41.02.12.07.25.14.41-.04,0,.1.41.41,1.23.32.82.67,1.71,1.06,2.67.39.96.76,1.86,1.11,2.7.35.84.57,1.29.65,1.32.04.16.14.39.3.7.55,1.14,1.26,2.16,2.14,3.05.88.9,1.84,1.73,2.85,2.47-.08-.08-.17-.3-.29-.67-.12-.37-.18-.58-.18-.62-.2-.55-.4-1.07-.62-1.56-.22-.49-.42-.99-.62-1.5-.2-.51-.4-1.01-.62-1.5-.22-.49-.42-1.01-.62-1.56-.04-.08-.11-.28-.23-.62-.12-.33-.22-.54-.29-.62-.43-.32-.83-.62-1.2-.91-.37-.3-.74-.6-1.09-.91.11-1.18.43-2.3.94-3.37.52-1.08,1.12-2.12,1.83-3.12.7-1,1.49-1.93,2.35-2.79.87-.87,1.74-1.64,2.64-2.35,2.67-2.11,5.56-3.8,8.69-5.05,1.92-.78,3.93-1.35,6.02-1.7,2.09-.35,4.2-.55,6.31-.59,4.12-.08,8.11.49,11.98,1.71,3.88,1.21,7.62,2.76,11.22,4.64,3.8,1.96,7.42,4.12,10.87,6.49,3.45,2.37,6.89,4.79,10.34,7.26,3.13,2.23,6.32,4.33,9.58,6.28,3.25,1.96,6.65,3.64,10.22,5.05,6.93,2.78,14.12,4.05,21.56,3.82,3.68-.12,7.39-.58,11.13-1.38,3.74-.8,7.33-1.98,10.78-3.52,3.45-1.55,6.65-3.48,9.6-5.82,2.96-2.33,5.49-5.08,7.61-8.25.54-.78,1.05-1.59,1.5-2.41.45-.82.89-1.64,1.32-2.47.98-1.73,1.72-3.43,2.23-5.11.24-.82.4-1.65.5-2.5.11-.85.11-1.67.03-2.5-.04-.43-.11-.82-.21-1.17-.1-.35-.21-.73-.32-1.12-.04-.08-.07-.18-.09-.29-.02-.12-.07-.22-.15-.3.04-.04-.11-.48-.44-1.32-.33-.84-.69-1.76-1.09-2.76-.39-1-.76-1.91-1.12-2.73-.35-.82-.55-1.21-.58-1.18,0-.04-.04-.13-.12-.29-.62-1.45-1.49-2.69-2.61-3.73-1.12-1.04-2.37-1.88-3.76-2.53-1.39-.65-2.87-1.08-4.44-1.29-1.57-.22-3.1-.21-4.58.03-.96.14-1.86.41-2.72.8-1.92-.19-3.63-.72-5.11-1.63-1.86-1.15-3.18-2.71-3.97-4.67,2.4,0,4.71-.26,6.94-.77,2.23-.51,4.22-1.23,5.99-2.16,1.76-.93,3.23-2.01,4.4-3.23,1.18-1.22,1.91-2.55,2.2-3.96.29-1.22.17-2.4-.37-3.53-.54-1.13-1.38-2.09-2.53-2.9-1.15-.81-2.57-1.45-4.26-1.94-1.69-.49-3.54-.73-5.55-.73-2.4,0-4.71.26-6.94.77-2.23.51-4.22,1.24-5.99,2.16-1.76.93-3.21,2.01-4.37,3.23-1.15,1.22-1.87,2.52-2.16,3.89-.24,1.28-.41,2.38-.48,3.3-.07.93-.01,1.64.19,2.13-2.31-.2-4.05-1.15-5.25-2.87-1.2-1.71-1.53-3.79-.99-6.24.29-1.27,1-2.53,2.13-3.78,1.13-1.25,2.58-2.4,4.33-3.45,1.76-1.05,3.78-1.98,6.06-2.79,2.28-.81,4.71-1.43,7.31-1.88,2.74-.48,5.3-1.02,7.67-1.58,2.37-.56,4.44-1.16,6.2-1.8,1.76-.63,3.18-1.31,4.26-2.02,1.08-.71,1.69-1.48,1.83-2.31.15-.69-.14-1.61-.88-2.79h7.64v-.05h29.92c-.14.58-.58,1.08-1.3,1.49-.73.41-1.68.8-2.86,1.16-1.19.37-2.58.69-4.17.98-1.59.29-3.33.58-5.22.87-2.17.38-4.18.76-6.02,1.12-1.83.36-3.44.75-4.82,1.16-1.37.41-2.48.87-3.3,1.38-.82.51-1.3,1.08-1.45,1.71-.24,1.26.68,2.45,2.75,3.56,2.08,1.11,4.86,2.35,8.34,3.71-4.4,2.28-7.98,4.62-10.73,7.05-2.75,2.42-4.35,4.62-4.78,6.61-.44,2.13-.35,4.13.25,5.99.6,1.86,1.62,3.48,3.04,4.87,1.43,1.38,3.21,2.47,5.36,3.27,2.15.8,4.53,1.2,7.14,1.2,1.98,0,3.89-.32,5.72-.95,1.84-.63,3.46-1.5,4.86-2.62-2.13-.38-4.02-1.04-5.69-1.96-1.66-.92-3.04-2.03-4.13-3.35-1.09-1.31-1.85-2.74-2.28-4.32-.44-1.57-.48-3.2-.15-4.9.48-2.32,1.35-4.34,2.61-6.07,1.26-1.72,2.71-2.84,4.35-3.38l8.12,2.25c1.74.34,3.07,1.2,3.99,2.58.91,1.38,1.16,2.91.73,4.61-.1.58-.67,1.27-1.71,2.07-1.04.8-2.41,1.64-4.09,2.51.58.53,1.62.95,3.12,1.24,1.5.29,3.33.46,5.51.51,1.55,0,3.06-.23,4.53-.69,1.47-.46,2.8-1.1,3.99-1.92,1.18-.83,2.18-1.79,3.01-2.87.82-1.09,1.37-2.26,1.66-3.52.19-1.02,0-2.03-.58-3.05-.58-1.02-1.51-1.97-2.79-2.87-1.28-.9-2.84-1.7-4.68-2.4-1.83-.7-3.86-1.25-6.09-1.63-1.79-.34-3.42-.72-4.89-1.13-1.47-.41-2.72-.85-3.73-1.31-1.01-.46-1.79-.95-2.32-1.45-.54-.51-.75-1.05-.66-1.63.09-.48.45-.83,1.05-1.05.61-.22,1.4-.4,2.4-.54.99-.15,2.16-.28,3.52-.4,1.35-.12,2.85-.33,4.49-.62,1.74-.29,3.36-.59,4.86-.9,1.5-.31,2.8-.66,3.91-1.02,1.12-.37,2.01-.75,2.68-1.16.68-.41,1.09-.88,1.23-1.41.19-1.02.07-1.94-.36-2.76h9.49l1.16-5.45ZM71.6,193.65h-.14c-2.71,0-4.57-.92-5.59-2.77-.77-1.35-1.15-2.96-1.15-4.8,0-3.36,1.05-6.82,3.14-10.39,1.54-2.68,3.53-4.8,5.96-6.37,2.83-1.66,6.32-2.9,10.46-3.72,4.14-.82,8.24-1.22,12.31-1.22-6.68,19.4-15.01,29.16-24.99,29.28ZM196.99,193.65h-.14c-2.71,0-4.57-.92-5.59-2.77-.77-1.35-1.15-2.96-1.15-4.8,0-3.36,1.05-6.82,3.14-10.39,1.54-2.68,3.53-4.8,5.96-6.37,2.83-1.66,6.32-2.9,10.46-3.72,4.14-.82,8.24-1.22,12.31-1.22-6.68,19.4-15.01,29.16-24.99,29.28ZM277.09,183.18c1.69-1.66,3.66-2.49,5.91-2.49.44,0,.8.18,1.06.55.27.36.38.79.33,1.28-.39,1.66-1.57,3.19-3.53,4.59-1.96,1.39-4.33,2.31-7.12,2.75.54-2.79,1.65-5.02,3.34-6.69Z"/><text class="cls-2" transform="translate(85.71 260.99)"><tspan x="0" y="0">Buy Anything!</tspan></text></svg>